<?xml version="1.0" standalone="no"?>
<!DOCTYPE svg PUBLIC "-//W3C//DTD SVG 20010904//EN"
 "http://www.w3.org/TR/2001/REC-SVG-20010904/DTD/svg10.dtd">
<svg version="1.0" xmlns="http://www.w3.org/2000/svg"
 width="2553.000000pt" height="2553.000000pt" viewBox="0 0 2553.000000 2553.000000"
 preserveAspectRatio="xMidYMid meet">
<metadata>
Created by potrace 1.11, written by Peter Selinger 2001-2013
</metadata>
<g transform="translate(0.000000,2553.000000) scale(0.100000,-0.100000)"
fill="#000000" stroke="none">
<path d="M12159 25126 c-6 -6 -145 -28 -199 -31 -165 -11 -245 -18 -320 -30
-153 -25 -295 -37 -401 -34 -98 3 -297 -22 -414 -51 -22 -5 -58 -10 -80 -10
-22 0 -62 -8 -90 -18 -49 -18 -50 -18 -63 -77 -10 -44 -10 -71 -3 -100 6 -22
16 -101 22 -175 12 -155 31 -224 66 -247 23 -15 37 -15 176 1 84 10 171 22
194 28 29 7 52 7 75 -1 58 -19 105 -115 92 -188 -3 -17 -1 -63 6 -100 7 -46 8
-77 1 -94 -6 -17 -6 -51 0 -95 5 -38 20 -181 34 -319 13 -137 29 -284 35 -325
14 -97 38 -250 50 -320 5 -30 12 -111 16 -180 8 -136 15 -157 68 -190 30 -18
40 -19 142 -10 60 6 161 15 224 20 230 20 237 22 270 60 30 34 31 37 24 110
-4 41 -8 120 -10 175 -1 55 -8 143 -13 195 -6 52 -13 118 -15 145 -14 162 -27
282 -32 295 -3 8 -10 67 -16 130 -17 207 -25 274 -37 310 -6 19 -11 51 -11 72
0 20 -5 49 -11 64 -10 28 -28 131 -36 214 -5 56 19 107 65 133 27 16 58 20
186 23 175 4 214 15 254 74 18 27 22 43 18 70 -3 19 -10 76 -16 125 -6 50 -15
100 -20 113 -6 13 -10 45 -10 72 0 50 -27 127 -51 146 -14 11 -161 28 -170 20z
m-699 -387 c0 -21 -32 -32 -76 -27 -42 5 -39 22 8 39 49 18 68 15 68 -12z
m256 -30 c10 -17 -23 -46 -37 -32 -7 7 -9 19 -6 27 7 18 33 21 43 5z m169 -60
c-4 -5 -13 -9 -22 -9 -13 0 -13 3 -3 15 13 15 35 11 25 -6z m-667 -37 c2 -7
-6 -12 -17 -12 -21 0 -27 11 -14 24 9 9 26 2 31 -12z m492 -42 c-18 -34 -70
-21 -70 16 0 12 47 21 63 12 14 -7 15 -13 7 -28z m-356 -49 c3 -4 -1 -16 -8
-26 -17 -24 -66 -13 -66 15 0 36 54 45 74 11z m-146 -17 c30 -8 28 -41 -3 -56
-40 -18 -73 20 -43 50 14 14 15 14 46 6z m411 -29 c11 -11 5 -16 -39 -29 -74
-22 -127 -21 -139 3 -11 20 -3 32 29 44 24 10 134 -4 149 -18z m-28 -111 c11
-14 9 -19 -11 -35 -26 -20 -47 -23 -120 -19 -56 3 -77 17 -56 38 11 11 21 12
43 4 23 -7 36 -6 64 9 42 23 63 23 80 3z m-92 -178 c15 -18 -15 -54 -49 -58
-37 -4 -39 32 -3 54 35 21 38 21 52 4z m115 -152 c24 -9 19 -24 -8 -24 -28 0
-43 16 -24 23 7 3 14 6 15 6 1 1 8 -2 17 -5z m47 -244 c-25 -21 -66 -26 -76
-10 -8 13 31 29 70 29 l30 0 -24 -19z m39 -690 c0 -5 -4 -10 -10 -10 -5 0 -10
5 -10 10 0 6 5 10 10 10 6 0 10 -4 10 -10z"/>
<path d="M13795 25110 c-143 -25 -283 -81 -359 -144 -142 -119 -219 -228 -274
-391 -27 -79 -36 -144 -32 -235 1 -41 3 -105 4 -141 1 -37 7 -73 13 -80 6 -8
14 -28 17 -44 4 -17 34 -65 66 -107 49 -62 85 -94 188 -166 126 -88 148 -100
292 -162 73 -32 136 -60 212 -95 20 -9 63 -41 96 -70 53 -48 60 -60 71 -111
16 -83 14 -125 -10 -154 -11 -14 -31 -42 -44 -62 -38 -57 -91 -78 -199 -78
-71 0 -106 5 -158 24 -94 34 -145 72 -281 208 -85 85 -124 118 -142 118 -37 0
-120 -57 -155 -108 -18 -26 -38 -51 -44 -57 -41 -36 -141 -165 -157 -202 -36
-85 -30 -104 68 -199 48 -46 90 -84 94 -84 4 0 30 -19 58 -43 51 -44 83 -62
206 -116 39 -17 81 -37 95 -45 56 -29 162 -38 435 -33 276 4 345 12 393 45 15
10 49 27 75 38 26 10 64 33 85 51 20 17 58 44 83 60 26 15 53 37 60 49 8 12
36 54 64 95 63 94 114 197 115 229 0 14 9 57 19 95 27 97 35 207 21 285 -6 36
-13 87 -16 113 -5 48 -22 86 -70 156 -13 20 -24 40 -24 46 0 19 -55 72 -151
147 -86 66 -108 78 -200 107 -57 18 -129 46 -161 62 -31 16 -78 36 -104 45
-63 21 -165 87 -203 130 -21 24 -31 45 -31 68 0 44 18 138 28 148 21 21 125
50 197 55 74 5 85 3 145 -25 36 -16 81 -35 101 -41 35 -11 111 -68 137 -103
16 -22 77 -41 107 -34 27 7 115 101 115 123 0 9 16 38 35 64 19 27 35 53 35
59 0 10 48 100 61 115 13 13 11 72 -2 98 -28 54 -105 118 -198 163 -119 58
-119 58 -215 89 -43 14 -99 25 -123 25 -24 0 -54 5 -66 12 -25 14 -304 20
-372 8z m-158 -472 c-3 -8 -6 -5 -6 6 -1 11 2 17 5 13 3 -3 4 -12 1 -19z m158
-148 c0 -9 -17 -20 -39 -28 -34 -11 -42 -10 -54 2 -13 13 -13 18 -2 31 18 21
95 17 95 -5z m-78 -162 c31 -11 41 -27 27 -40 -3 -4 -20 -2 -37 4 -18 6 -52
11 -77 12 -34 1 -45 5 -48 19 -3 14 4 17 49 17 29 0 68 -5 86 -12z m-38 -131
c14 -18 4 -27 -30 -27 -29 0 -44 13 -34 30 9 15 51 12 64 -3z m284 -53 c11
-11 -13 -44 -32 -44 -25 0 -32 10 -20 31 9 18 39 25 52 13z m-149 -55 c-3 -5
-10 -7 -15 -3 -5 3 -7 10 -3 15 3 5 10 7 15 3 5 -3 7 -10 3 -15z m-136 -181
c-7 -20 -48 -23 -48 -4 0 11 9 16 26 16 16 0 24 -5 22 -12z m582 -263 c0 -16
-35 -21 -44 -6 -8 12 4 21 26 21 10 0 18 -7 18 -15z m-2 -137 c3 -14 -3 -18
-27 -18 -31 0 -47 13 -36 31 11 16 59 6 63 -13z m-31 -214 c5 -14 -22 -25 -42
-18 -8 4 -15 13 -15 21 0 17 51 14 57 -3z m-33 -120 c23 -9 20 -34 -4 -34 -13
0 -20 7 -20 20 0 22 1 23 24 14z m-384 -424 c0 -5 -6 -10 -14 -10 -8 0 -18 5
-21 10 -3 6 3 10 14 10 12 0 21 -4 21 -10z m195 0 c-3 -5 -10 -10 -16 -10 -5
0 -9 5 -9 10 0 6 7 10 16 10 8 0 12 -4 9 -10z"/>
<path d="M9600 24719 c-305 -101 -358 -117 -555 -174 -49 -14 -99 -30 -110
-35 -32 -13 -55 -20 -135 -42 -41 -10 -124 -35 -185 -54 -60 -20 -126 -40
-145 -46 -86 -26 -139 -132 -96 -193 7 -11 19 -45 26 -75 7 -30 23 -77 37
-105 13 -27 30 -72 38 -100 12 -46 67 -212 85 -260 4 -11 20 -60 34 -110 15
-49 31 -103 37 -120 39 -114 78 -249 87 -300 14 -85 57 -223 82 -267 6 -10 10
-26 10 -37 0 -11 9 -40 19 -65 11 -25 23 -61 27 -81 3 -20 22 -75 40 -122 19
-48 34 -95 34 -105 0 -28 98 -331 131 -404 22 -50 78 -79 125 -64 16 5 58 16
94 24 106 25 211 57 270 84 30 13 81 29 112 36 31 6 65 18 75 27 30 25 94 50
178 69 49 11 172 54 182 63 3 4 15 7 25 7 10 0 47 9 81 21 34 12 104 32 155
45 127 32 157 48 180 94 17 36 18 44 5 107 -8 37 -21 81 -29 97 -7 16 -14 39
-14 50 0 12 -11 43 -25 70 -14 27 -25 65 -25 84 0 28 -8 43 -42 74 -25 23 -51
38 -67 38 -30 0 -158 -41 -251 -80 -73 -31 -133 -50 -235 -76 -38 -9 -77 -20
-85 -25 -48 -24 -91 -39 -115 -39 -39 0 -82 29 -95 64 -33 89 -39 97 -65 90
-30 -8 -33 6 -4 24 19 12 20 19 14 71 -7 58 -6 58 29 88 41 33 136 68 216 78
30 4 87 20 127 36 39 16 80 29 90 29 55 0 194 60 222 96 22 28 28 86 12 126
-5 13 -21 64 -36 113 -14 50 -30 99 -35 110 -5 11 -15 40 -23 64 -8 24 -25 56
-38 72 -40 49 -67 43 -419 -81 -213 -76 -271 -89 -325 -76 -26 7 -75 96 -75
138 0 13 -5 29 -11 35 -7 7 -12 39 -13 71 -2 88 20 107 179 156 44 13 94 27
110 29 75 14 115 26 185 59 41 19 98 40 125 47 86 22 121 41 137 74 12 26 13
37 2 67 -27 75 -74 232 -74 249 0 9 -7 26 -15 37 -8 10 -15 40 -15 65 0 63
-21 80 -102 85 -51 4 -81 -1 -158 -27z m-560 -404 c0 -8 -4 -15 -10 -15 -5 0
-10 7 -10 15 0 8 5 15 10 15 6 0 10 -7 10 -15z m-135 -185 c10 -11 16 -20 12
-20 -3 0 -12 -3 -20 -6 -17 -6 -50 23 -42 37 10 15 31 10 50 -11z m235 12 c0
-19 -23 -31 -42 -21 -27 15 -22 29 12 29 17 0 30 -4 30 -8z m-350 -27 c0 -16
-45 -21 -54 -6 -8 12 4 21 31 21 14 0 23 -6 23 -15z m485 5 c3 -6 -1 -13 -10
-16 -19 -8 -30 0 -20 15 8 14 22 14 30 1z m-165 -100 c10 -6 12 -12 5 -19 -10
-10 -75 6 -91 22 -11 11 69 8 86 -3z m-115 -89 c8 -15 -24 -41 -50 -41 -33 0
-39 16 -13 34 25 18 54 21 63 7z m135 -191 c0 -5 -4 -10 -10 -10 -5 0 -10 5
-10 10 0 6 5 10 10 10 6 0 10 -4 10 -10z m-117 -86 c-4 -10 -9 -12 -15 -6 -12
12 -1 35 12 27 5 -3 6 -13 3 -21z m262 -74 c8 -13 -20 -24 -41 -16 -20 8 -9
26 16 26 10 0 22 -5 25 -10z m-185 -30 c0 -21 -16 -26 -39 -11 -18 11 -5 31
20 31 12 0 19 -7 19 -20z m-110 6 c0 -11 -19 -15 -25 -6 -3 5 1 10 9 10 9 0
16 -2 16 -4z m220 -73 c0 -28 -16 -45 -36 -41 -23 4 -31 37 -12 49 22 15 48
10 48 -8z m170 -16 c0 -21 -67 -59 -89 -52 -12 3 -21 10 -21 14 0 13 33 38 65
48 33 11 45 8 45 -10z m-215 -101 c0 -22 -14 -29 -34 -17 -19 12 -6 43 16 39
10 -2 18 -12 18 -22z m95 -55 c0 -5 -18 -29 -41 -55 -31 -35 -48 -46 -71 -46
-22 0 -29 4 -26 16 2 9 12 22 23 28 11 6 37 25 59 43 35 30 56 35 56 14z m202
-3 c-12 -12 -35 -1 -27 12 3 5 13 6 21 3 10 -4 12 -9 6 -15z m-379 -5 c4 -3 2
-12 -4 -20 -9 -10 -15 -10 -25 -2 -8 6 -11 15 -8 20 6 11 28 12 37 2z m207
-78 c0 -8 -9 -15 -20 -15 -11 0 -20 7 -20 15 0 8 9 15 20 15 11 0 20 -7 20
-15z m115 -94 c3 -5 1 -13 -5 -16 -15 -9 -43 3 -35 15 8 13 32 13 40 1z m-95
-110 c0 -37 -90 -74 -98 -40 -2 11 11 24 40 38 53 26 58 26 58 2z m133 -7 c3
-3 -5 -17 -19 -31 -13 -13 -24 -28 -24 -32 0 -12 -48 -61 -60 -61 -23 0 -7 36
38 80 50 50 55 54 65 44z m-86 -220 c12 -31 -133 -122 -171 -108 -36 14 -13
48 59 86 77 41 103 46 112 22z m223 -70 c21 -25 -7 -43 -78 -50 -59 -6 -62 -6
-62 14 0 15 8 23 28 28 15 3 38 10 52 14 37 12 46 12 60 -6z m-160 -71 c0 -5
-4 -14 -9 -21 -9 -16 -87 -13 -84 3 3 17 93 34 93 18z m610 -48 c0 -16 -27
-32 -37 -22 -3 4 -3 13 0 22 8 20 37 20 37 0z m-722 -49 c5 -26 -11 -38 -42
-30 -27 6 -36 38 -13 48 23 10 52 1 55 -18z m470 -29 c3 -16 -54 -49 -70 -40
-17 9 -7 33 20 47 32 18 46 16 50 -7z m-353 -8 c0 -8 -10 -15 -22 -17 -25 -4
-33 22 -10 31 18 8 32 2 32 -14z m165 -16 c0 -36 -36 -73 -72 -73 -50 0 -28
52 37 88 30 17 35 15 35 -15z m-320 -83 c0 -5 -7 -10 -15 -10 -8 0 -15 5 -15
10 0 6 7 10 15 10 8 0 15 -4 15 -10z m173 -25 c1 -5 -6 -11 -15 -13 -11 -2
-18 3 -18 13 0 17 30 18 33 0z"/>
<path d="M17225 24140 c-85 -19 -122 -29 -185 -53 -36 -14 -81 -31 -100 -38
-191 -68 -378 -213 -520 -402 -25 -33 -57 -76 -72 -96 -15 -20 -27 -46 -28
-58 0 -12 -11 -34 -24 -48 -13 -14 -29 -40 -36 -58 -6 -17 -22 -54 -35 -82
-12 -27 -32 -84 -43 -125 -58 -209 -57 -204 -57 -430 1 -203 2 -218 24 -265
12 -27 24 -66 25 -86 2 -39 43 -130 88 -196 15 -23 28 -52 28 -66 0 -13 11
-34 25 -47 14 -13 25 -29 25 -36 0 -28 261 -266 353 -323 113 -68 287 -150
345 -161 30 -5 57 -12 62 -15 15 -9 205 -44 281 -51 53 -4 78 -3 83 5 4 6 15
11 25 11 46 0 111 58 111 99 0 6 11 27 25 47 14 20 25 44 25 54 0 9 12 41 28
71 15 30 36 75 46 99 11 25 29 59 41 75 32 45 45 94 45 168 0 83 -15 96 -88
73 -73 -23 -207 -40 -317 -40 -85 0 -107 3 -145 23 -25 13 -55 26 -67 29 -12
4 -62 39 -111 77 -71 56 -100 87 -141 151 -28 46 -51 93 -51 108 0 15 -7 41
-16 57 -9 18 -14 50 -13 82 2 29 -1 71 -5 94 -6 33 -2 58 18 117 14 41 26 82
26 90 0 9 4 24 8 34 5 9 21 43 37 74 36 75 144 210 204 254 25 19 84 53 131
77 l85 42 122 -2 c131 -2 169 -11 270 -62 33 -17 64 -31 67 -31 4 0 27 -17 52
-37 59 -50 143 -159 192 -253 49 -93 70 -104 130 -66 26 16 42 34 42 46 0 10
5 22 10 25 6 3 10 16 10 29 0 12 11 45 25 72 14 27 25 55 25 62 0 7 7 23 15
35 8 13 24 52 36 86 11 35 31 80 44 100 42 64 50 111 30 170 -17 51 -73 121
-98 121 -7 0 -48 34 -92 76 -70 66 -99 85 -232 150 -242 119 -333 142 -583
149 -91 2 -183 0 -205 -5z m384 -343 c6 -8 8 -17 4 -20 -12 -12 -53 -7 -53 6
0 28 30 37 49 14z m-569 -177 c0 -5 -4 -10 -10 -10 -5 0 -10 5 -10 10 0 6 5
10 10 10 6 0 10 -4 10 -10z m-383 -512 c-3 -8 -6 -5 -6 6 -1 11 2 17 5 13 3
-3 4 -12 1 -19z m-69 -225 c4 -27 -23 -31 -53 -10 -24 18 -10 39 23 35 19 -2
28 -10 30 -25z m-153 -13 c3 -5 -1 -10 -10 -10 -9 0 -13 5 -10 10 3 6 8 10 10
10 2 0 7 -4 10 -10z m210 -89 c3 -5 1 -13 -5 -16 -15 -9 -43 3 -35 15 8 13 32
13 40 1z m-117 -234 c2 -10 -3 -17 -12 -17 -10 0 -16 9 -16 21 0 24 23 21 28
-4z m164 -71 c10 -15 -1 -26 -27 -26 -29 0 -41 16 -25 35 12 14 40 10 52 -9z
m-212 -185 c0 -4 -3 -11 -7 -14 -9 -9 -44 23 -37 34 6 10 44 -7 44 -20z m180
-31 c24 -24 26 -48 5 -57 -30 -11 -71 48 -48 70 11 11 22 8 43 -13z m108 -118
c2 -7 -3 -12 -12 -12 -9 0 -16 7 -16 16 0 17 22 14 28 -4z m172 -2 c0 -5 -4
-10 -10 -10 -5 0 -10 5 -10 10 0 6 5 10 10 10 6 0 10 -4 10 -10z m-143 -247
c-3 -3 -11 -2 -17 2 -9 6 -9 10 1 16 14 8 27 -7 16 -18z"/>
<path d="M7410 23923 c-36 -20 -94 -51 -129 -70 -36 -18 -69 -37 -75 -42 -16
-12 -89 -52 -255 -139 -80 -41 -159 -84 -176 -94 -16 -10 -73 -40 -125 -66
-52 -27 -120 -63 -150 -81 -30 -17 -88 -48 -128 -67 -80 -40 -107 -67 -122
-126 -12 -44 -6 -73 20 -103 10 -11 30 -45 44 -76 14 -31 41 -76 59 -100 18
-24 41 -62 53 -84 11 -22 33 -62 49 -90 103 -182 195 -353 195 -364 0 -6 4
-11 8 -11 5 0 22 -26 37 -57 16 -32 37 -70 47 -85 11 -15 25 -49 33 -76 14
-47 50 -116 127 -247 20 -33 61 -108 91 -167 31 -59 71 -131 90 -160 19 -29
40 -69 47 -88 7 -19 19 -42 25 -50 7 -8 38 -64 70 -125 31 -60 75 -137 96
-171 34 -53 45 -63 84 -74 29 -8 49 -9 57 -3 7 5 45 22 83 38 39 15 77 34 86
42 20 17 90 53 102 53 5 0 37 19 71 43 33 24 81 52 106 62 25 11 66 37 91 60
25 22 57 45 70 52 13 6 44 20 69 32 45 21 114 59 160 89 14 9 95 52 180 95
203 103 207 106 225 143 23 50 17 86 -28 169 -6 11 -25 47 -42 80 -18 33 -44
78 -59 99 -14 21 -26 46 -26 56 0 33 -78 90 -123 90 -27 0 -131 -55 -237 -125
-89 -58 -157 -97 -205 -116 -22 -8 -73 -37 -113 -62 -114 -74 -160 -64 -222
50 -20 36 -25 40 -41 30 -25 -16 -34 -3 -16 24 14 19 14 26 2 57 -24 57 -19
76 33 124 49 44 147 98 177 98 19 0 69 25 110 55 27 20 157 85 170 85 3 0 26
15 52 34 48 35 83 81 83 110 0 17 -74 161 -153 299 -46 82 -97 137 -125 137
-16 0 -192 -92 -244 -128 -24 -16 -67 -41 -96 -56 -29 -15 -76 -41 -105 -59
-72 -46 -163 -87 -191 -87 -40 0 -71 36 -125 143 -60 118 -60 137 -3 193 39
37 163 107 257 144 32 13 87 45 120 70 33 25 94 63 135 84 94 47 98 51 105 90
5 26 -2 48 -36 112 -23 43 -58 111 -77 149 -19 39 -38 72 -42 75 -13 9 -30 48
-30 69 0 36 -27 51 -93 51 -52 0 -72 -6 -127 -37z m-510 -528 c0 -8 -4 -15 -9
-15 -13 0 -22 16 -14 24 11 11 23 6 23 -9z m260 -155 c0 -21 -15 -27 -25 -10
-7 12 2 30 16 30 5 0 9 -9 9 -20z m-130 6 c0 -18 -15 -36 -29 -36 -25 0 -33
11 -20 27 10 12 49 19 49 9z m-222 -68 c3 -13 -3 -18 -22 -18 -27 0 -41 14
-31 31 10 16 49 6 53 -13z m-120 -25 c5 -17 -26 -29 -40 -15 -6 6 -7 15 -3 22
9 14 37 9 43 -7z m350 -45 c-5 -14 -61 -23 -85 -14 -27 11 -2 26 43 26 32 0
44 -4 42 -12z m-111 -122 c-4 -9 -16 -17 -27 -17 -11 -1 -25 -2 -32 -3 -27 -2
-17 25 14 38 35 16 55 8 45 -18z m73 -236 c0 -5 -7 -10 -15 -10 -8 0 -15 5
-15 10 0 6 7 10 15 10 8 0 15 -4 15 -10z m270 -29 c0 -15 -28 -33 -40 -26 -8
5 -8 11 1 21 13 15 39 19 39 5z m-172 -64 c4 -22 -27 -35 -38 -16 -10 15 7 42
24 36 6 -2 12 -11 14 -20z m282 -33 c0 -14 -57 -74 -71 -74 -7 0 -19 25 -19
41 0 11 60 49 78 49 6 0 12 -7 12 -16z m-165 -15 c9 -26 -15 -52 -38 -43 -20
7 -22 35 -5 52 18 18 36 14 43 -9z m-16 -113 c9 -10 8 -16 -4 -26 -17 -14 -45
-7 -45 13 0 29 30 37 49 13z m291 -6 c0 -5 -4 -10 -10 -10 -5 0 -10 5 -10 10
0 6 5 10 10 10 6 0 10 -4 10 -10z m-190 -40 c0 -5 -13 -32 -30 -58 -38 -62
-90 -89 -90 -46 0 6 21 35 48 62 44 48 72 64 72 42z m-165 -55 c0 -5 -10 -11
-22 -13 -16 -2 -23 2 -23 13 0 11 7 15 23 13 12 -2 22 -7 22 -13z m210 -20 c0
-5 -10 -11 -22 -13 -16 -2 -23 2 -23 13 0 11 7 15 23 13 12 -2 22 -7 22 -13z
m125 -85 c0 -11 -7 -20 -15 -20 -15 0 -21 21 -8 33 12 13 23 7 23 -13z m70
-104 c0 -8 -6 -16 -14 -19 -7 -3 -16 -18 -19 -34 -8 -39 -47 -87 -60 -74 -13
13 14 70 42 91 12 8 21 22 21 32 0 10 7 18 15 18 8 0 15 -6 15 -14z m-135 -6
c10 -16 -60 -84 -78 -77 -25 9 -21 25 15 58 34 30 52 36 63 19z m88 -238 c-7
-21 -84 -94 -117 -112 -21 -10 -28 -11 -41 0 -8 7 -15 19 -15 26 0 12 86 83
135 111 24 14 47 -1 38 -25z m235 -4 c13 -13 -2 -48 -22 -48 -7 0 -27 -7 -44
-16 -30 -15 -72 -12 -72 5 0 14 30 35 74 53 50 21 49 21 64 6z m469 -34 c5
-14 -35 -26 -43 -13 -8 14 6 30 24 27 8 -2 17 -8 19 -14z m-612 -64 c9 -15
-32 -50 -60 -50 -36 0 -32 27 8 44 40 18 44 18 52 6z m375 -54 c0 -14 -45 -56
-60 -56 -19 0 -17 32 2 50 25 23 58 26 58 6z m-463 -62 c9 -24 -19 -46 -50
-38 -31 7 -35 28 -9 43 25 15 52 13 59 -5z m286 4 c8 -24 -14 -64 -43 -82 -55
-32 -70 15 -21 65 31 31 56 37 64 17z m-170 -4 c3 -4 2 -16 -4 -26 -13 -24
-35 -9 -26 16 7 17 19 21 30 10z m37 -144 c0 -19 -11 -26 -23 -14 -8 8 3 34
14 34 5 0 9 -9 9 -20z m-165 0 c3 -6 -1 -13 -10 -16 -19 -8 -30 0 -20 15 8 14
22 14 30 1z"/>
<path d="M19910 22729 c-14 -6 -36 -21 -50 -33 -14 -13 -36 -27 -50 -31 -14
-4 -50 -27 -82 -51 -31 -24 -62 -44 -68 -44 -7 0 -34 -16 -60 -35 -26 -19 -51
-35 -55 -35 -4 0 -23 -14 -42 -31 -20 -17 -52 -38 -72 -47 -20 -9 -76 -46
-126 -81 -49 -35 -118 -79 -153 -97 -35 -19 -76 -44 -91 -55 -14 -11 -73 -48
-131 -81 -58 -34 -112 -67 -120 -74 -25 -21 -251 -165 -310 -197 -30 -17 -70
-43 -88 -59 -18 -15 -37 -28 -43 -28 -6 0 -28 -15 -49 -32 -21 -18 -60 -42
-87 -52 -26 -11 -76 -39 -111 -63 -34 -24 -77 -51 -95 -59 -98 -46 -223 -145
-232 -183 -9 -41 18 -94 67 -134 22 -18 67 -56 101 -85 34 -30 86 -65 116 -79
30 -14 78 -47 106 -74 92 -86 145 -91 249 -22 39 25 94 65 121 89 52 43 118
84 136 84 15 0 121 -74 184 -129 31 -27 77 -59 103 -71 41 -19 116 -78 202
-158 14 -13 50 -41 80 -61 111 -77 142 -128 105 -177 -8 -10 -15 -35 -15 -55
0 -25 -8 -43 -25 -59 -15 -14 -29 -44 -36 -76 -7 -30 -20 -61 -31 -70 -22 -21
-24 -70 -3 -111 18 -37 116 -130 170 -163 22 -14 51 -34 65 -46 102 -88 188
-157 206 -164 23 -9 111 6 132 22 6 6 12 21 12 34 0 13 9 38 20 56 11 18 20
42 20 53 0 11 11 44 25 73 14 30 25 68 25 85 0 18 11 52 25 76 14 23 25 52 25
62 0 10 16 60 35 111 19 51 35 101 35 110 0 9 11 38 25 64 14 26 25 62 25 80
0 18 4 35 9 38 4 3 14 27 21 53 7 27 18 57 25 68 7 11 22 56 34 99 12 43 28
91 36 106 8 16 15 40 15 53 0 13 9 33 20 45 11 12 23 36 27 54 3 18 14 51 24
72 11 22 19 50 19 62 0 12 11 42 25 65 14 24 25 57 25 72 0 27 21 88 61 173
10 23 19 48 19 56 0 8 7 23 15 34 8 10 15 34 15 52 0 18 5 43 12 55 11 20 19
40 58 147 8 19 22 54 32 77 10 24 18 51 18 60 0 10 7 31 15 47 35 67 5 166
-62 207 -67 42 -185 134 -328 259 -77 67 -158 130 -180 141 -43 20 -105 24
-145 8z m184 -451 c5 -9 7 -20 3 -25 -11 -10 -41 11 -45 31 -5 23 26 18 42 -6z
m-179 -78 c18 -19 17 -20 -3 -20 -15 0 -22 6 -22 20 0 11 2 20 3 20 2 0 12 -9
22 -20z m265 -66 c11 -12 11 -18 -2 -30 -20 -20 -58 -3 -58 26 0 25 41 28 60
4z m-530 -34 c0 -13 -7 -20 -20 -20 -23 0 -35 22 -26 45 8 22 46 1 46 -25z
m660 -15 c15 -19 5 -35 -24 -35 -25 0 -46 17 -46 37 0 18 55 17 70 -2z m-341
-30 c23 -17 42 -42 58 -81 27 -67 28 -83 9 -90 -30 -11 -55 14 -58 59 -3 39
-7 44 -51 68 -68 36 -76 47 -53 65 23 17 48 11 95 -21z m-419 -57 c0 -6 -7 -5
-15 2 -8 7 -15 17 -15 22 0 6 7 5 15 -2 8 -7 15 -17 15 -22z m622 -5 c19 -17
24 -43 8 -43 -5 0 -19 9 -30 20 -36 36 -16 57 22 23z m-288 -34 c33 -15 40
-37 21 -65 -23 -35 -19 -61 10 -68 36 -9 31 -24 -10 -32 -39 -7 -65 -36 -65
-72 0 -12 -6 -33 -14 -45 -8 -12 -26 -54 -39 -93 -14 -40 -32 -87 -40 -105 -8
-19 -18 -47 -22 -64 -3 -16 -25 -76 -47 -133 -41 -106 -68 -138 -104 -126 -90
29 -126 53 -226 149 -52 50 -106 100 -121 112 -34 29 -37 83 -6 114 19 19 128
94 241 166 28 18 60 41 72 51 12 11 35 27 51 35 17 9 45 32 63 51 19 20 40 36
47 36 7 0 35 17 62 37 39 30 91 63 100 63 1 0 13 -5 27 -11z m274 -103 c3 -13
-1 -17 -14 -14 -11 2 -20 11 -22 22 -3 13 1 17 14 14 11 -2 20 -11 22 -22z
m-834 -114 c2 -4 0 -14 -5 -22 -8 -13 -10 -13 -18 0 -10 15 -6 30 9 30 5 0 11
-4 14 -8z m-225 -44 c9 -15 12 -30 8 -34 -10 -10 -61 29 -65 50 -6 28 40 15
57 -16z m951 -28 c0 -5 -4 -10 -10 -10 -5 0 -10 5 -10 10 0 6 5 10 10 10 6 0
10 -4 10 -10z m-802 -48 c2 -7 -6 -12 -17 -12 -21 0 -27 11 -14 24 9 9 26 2
31 -12z m-512 -94 c38 -31 63 -59 62 -68 -4 -21 -45 -24 -74 -5 -24 15 -84 99
-84 117 0 20 36 4 96 -44z m195 19 c36 -24 54 -77 26 -77 -33 0 -95 69 -82 90
9 15 18 12 56 -13z m-563 -195 c3 -17 -2 -22 -17 -22 -16 0 -21 6 -21 26 0 33
33 30 38 -4z m272 -12 c0 -13 -7 -20 -19 -20 -22 0 -35 15 -26 30 12 19 45 11
45 -10z m440 0 c0 -5 -4 -10 -9 -10 -6 0 -13 5 -16 10 -3 6 1 10 9 10 9 0 16
-4 16 -10z m-350 -60 c11 -7 12 -12 3 -21 -13 -13 -33 -4 -33 17 0 16 9 18 30
4z m1260 -149 c0 -14 -18 -23 -30 -16 -6 4 -8 11 -5 16 8 12 35 12 35 0z
m-542 -117 c28 -19 27 -59 -2 -59 -22 0 -61 48 -52 64 10 15 28 14 54 -5z
m262 -55 c0 -10 -5 -21 -11 -25 -16 -9 -53 31 -46 50 5 13 11 14 32 4 14 -6
25 -19 25 -29z m132 4 c36 -33 13 -57 -33 -33 -24 13 -26 50 -2 50 9 0 25 -7
35 -17z m-190 -115 c32 -35 58 -66 58 -70 0 -25 -84 21 -127 69 -34 36 -38 45
-26 56 16 17 41 3 95 -55z m135 -104 c73 -40 91 -74 39 -74 -26 0 -106 65
-106 86 0 20 13 18 67 -12z m-17 -304 c0 -11 -4 -20 -9 -20 -11 0 -22 26 -14
34 12 12 23 5 23 -14z"/>
<path d="M5275 22680 c-40 -20 -349 -324 -393 -387 -39 -55 -32 -104 27 -205
29 -48 56 -90 61 -93 6 -4 10 -14 10 -25 0 -10 14 -35 31 -56 30 -39 100 -152
167 -271 20 -35 53 -83 74 -109 21 -25 38 -52 38 -58 0 -7 12 -28 26 -47 14
-19 36 -58 50 -87 13 -29 30 -55 38 -58 8 -3 17 -13 21 -22 15 -37 33 -117 28
-125 -3 -5 3 -14 12 -21 25 -18 8 -70 -25 -74 -22 -4 -23 -1 -17 38 l5 43 -48
-6 c-47 -6 -50 -5 -69 27 -22 34 -143 106 -180 106 -11 0 -27 10 -35 21 -18
26 -95 79 -115 79 -8 0 -29 11 -47 25 -18 14 -45 29 -59 35 -15 6 -47 24 -73
42 -25 17 -64 41 -87 53 -101 54 -163 90 -202 116 -23 16 -46 29 -50 29 -5 0
-24 11 -43 25 -26 19 -46 25 -86 25 -47 0 -56 -4 -86 -36 -18 -19 -81 -78
-140 -131 -120 -107 -168 -168 -168 -210 0 -44 20 -104 45 -138 13 -16 36 -57
53 -91 17 -33 37 -66 45 -72 7 -7 22 -31 33 -54 10 -24 33 -61 51 -82 18 -22
33 -48 33 -58 0 -10 18 -42 39 -71 21 -29 60 -94 87 -145 26 -52 60 -107 76
-122 15 -16 28 -39 28 -51 0 -12 11 -37 26 -56 26 -34 44 -43 44 -20 -1 22 74
166 89 172 40 16 50 -64 11 -96 -10 -9 -27 -33 -38 -53 -11 -21 -28 -43 -38
-51 -17 -12 -17 -15 6 -58 20 -38 22 -48 11 -61 -8 -9 -28 -16 -47 -16 -34 0
-64 -21 -64 -45 0 -17 -30 -34 -47 -28 -18 6 -16 48 2 63 26 22 16 44 -30 73
-25 15 -51 27 -58 27 -7 0 -51 27 -99 59 -47 33 -105 65 -127 72 -23 7 -41 17
-41 24 0 16 -40 51 -67 59 -12 4 -38 20 -58 36 -21 17 -43 30 -49 30 -6 0 -54
32 -106 71 -52 39 -122 84 -155 100 -33 17 -70 40 -83 52 -17 16 -35 22 -67
21 -55 -1 -86 -23 -220 -155 -55 -54 -144 -141 -197 -193 -106 -101 -110 -111
-81 -177 12 -29 29 -45 67 -64 28 -14 60 -31 71 -37 53 -35 92 -56 115 -63 14
-4 34 -16 45 -26 11 -10 40 -25 63 -33 23 -8 57 -26 75 -40 17 -13 66 -40 109
-60 42 -19 80 -40 83 -47 4 -6 28 -20 54 -31 25 -12 58 -29 73 -39 14 -11 31
-19 38 -19 6 0 26 -11 44 -25 18 -13 51 -31 73 -39 22 -8 60 -29 85 -48 24
-18 79 -51 123 -72 44 -22 96 -52 115 -68 19 -15 40 -28 47 -28 14 0 198 -100
258 -140 22 -15 60 -34 84 -44 24 -9 63 -30 87 -46 23 -17 48 -30 55 -30 7 0
26 -10 43 -23 17 -13 47 -29 66 -36 55 -20 92 -42 133 -78 20 -18 45 -33 55
-33 10 0 38 -9 61 -21 38 -18 49 -19 90 -9 42 10 63 27 179 143 72 73 141 146
154 162 12 17 37 46 55 65 52 56 59 75 43 118 -27 77 -64 147 -107 209 -13 17
-23 36 -23 42 0 16 -21 50 -57 95 -18 22 -33 47 -33 56 0 10 -9 28 -19 42 -11
13 -29 44 -42 68 -33 66 -109 180 -120 180 -5 0 -15 21 -21 46 -12 45 -41 74
-53 54 -9 -14 -52 -13 -61 2 -7 11 23 42 48 50 7 3 2 20 -15 49 -42 71 -33
113 23 111 36 -1 87 -18 110 -38 8 -7 47 -29 85 -50 39 -20 90 -51 115 -68 25
-18 59 -38 75 -46 17 -8 44 -25 61 -37 17 -13 36 -23 41 -23 10 0 111 -58 136
-78 7 -5 57 -33 112 -62 55 -28 117 -66 139 -82 83 -66 191 -39 282 70 26 31
82 91 124 132 42 41 100 101 128 132 47 51 52 61 52 103 0 48 -29 112 -76 168
-13 16 -24 35 -24 42 0 8 -10 31 -21 52 -12 21 -33 61 -47 88 -14 28 -40 68
-59 89 -18 22 -33 45 -33 52 0 16 -78 166 -129 249 -48 79 -67 112 -91 160
-10 22 -31 53 -45 69 -14 16 -25 37 -25 46 0 9 -15 38 -32 66 -18 27 -39 63
-48 79 -8 17 -23 42 -33 55 -29 40 -85 139 -93 163 -4 12 -16 35 -27 52 -12
16 -35 55 -52 86 -16 32 -54 96 -83 144 -29 47 -62 107 -73 133 -11 26 -31 58
-43 72 -13 14 -27 39 -30 55 -4 17 -20 46 -34 65 -15 19 -36 55 -48 80 -21 45
-74 100 -97 100 -7 0 -30 -9 -52 -20z m222 -1036 c8 -21 -18 -46 -36 -35 -10
7 -11 13 -2 30 14 25 29 27 38 5z m229 -106 c8 -12 -39 -58 -59 -58 -25 0 -39
18 -33 38 10 29 77 44 92 20z m-121 -129 c15 -24 -6 -56 -55 -83 -27 -15 -55
-24 -61 -21 -13 9 13 51 54 88 33 29 52 34 62 16z m249 -88 c3 -5 -1 -11 -9
-15 -15 -6 -29 7 -18 18 9 9 21 8 27 -3z m-150 -17 c20 -8 21 -38 2 -53 -9 -8
-21 -8 -40 -1 -32 12 -32 17 -3 41 26 22 22 20 41 13z m-154 -82 c0 -5 -6 -16
-13 -27 -16 -20 -33 -5 -23 20 6 16 36 21 36 7z m-670 -19 c0 -10 -9 -31 -20
-48 -11 -16 -27 -54 -36 -82 -21 -66 -62 -113 -138 -158 -65 -39 -86 -43 -86
-18 0 21 77 92 110 100 14 3 31 10 38 16 19 15 14 48 -8 54 -11 3 -20 8 -20
12 0 10 134 137 148 139 6 1 12 -6 12 -15z m-570 -3 c0 -5 -4 -10 -10 -10 -5
0 -10 5 -10 10 0 6 5 10 10 10 6 0 10 -4 10 -10z m1348 -34 c7 -56 -106 -129
-125 -80 -7 18 92 117 111 111 6 -2 12 -16 14 -31z m-998 -7 c0 -28 -58 -99
-81 -99 -28 0 -18 51 19 93 16 19 62 24 62 6z m1320 -9 c0 -5 -5 -10 -11 -10
-5 0 -7 5 -4 10 3 6 8 10 11 10 2 0 4 -4 4 -10z m-130 -44 c0 -8 -7 -16 -15
-20 -11 -4 -15 -20 -15 -56 0 -41 -6 -61 -30 -95 -32 -47 -36 -60 -20 -70 12
-8 52 16 88 52 57 57 82 -6 33 -83 -32 -50 -39 -88 -19 -100 16 -10 100 -5
115 8 6 5 15 23 18 39 10 43 42 40 51 -6 4 -26 1 -43 -15 -69 -27 -43 -48 -50
-101 -36 -50 13 -71 7 -132 -37 -44 -31 -68 -36 -68 -13 0 5 8 17 19 27 24 23
61 92 61 114 0 14 -19 29 -36 29 -2 0 -19 -24 -38 -52 -19 -29 -46 -65 -59
-81 -40 -48 -50 -6 -18 78 10 28 22 76 26 108 7 52 6 57 -11 57 -11 0 -28 -14
-39 -30 -13 -20 -27 -30 -40 -28 -28 4 -31 42 -6 77 40 55 13 90 -33 44 -20
-20 -26 -36 -26 -69 0 -54 -16 -64 -44 -30 l-21 27 -52 -37 c-48 -34 -53 -40
-53 -75 0 -48 -35 -78 -70 -59 -22 12 -35 1 -97 -74 -28 -34 -47 -30 -51 10
-2 24 6 38 39 72 28 27 52 42 68 42 37 0 91 36 91 59 0 35 21 65 81 117 46 40
74 56 125 70 36 9 82 30 101 46 65 51 96 23 45 -41 -18 -22 -27 -43 -23 -50
13 -20 39 -1 67 47 46 80 104 129 104 88z m-600 -32 c0 -14 -13 -44 -29 -67
-15 -23 -34 -60 -41 -81 -15 -47 -85 -126 -111 -126 -20 0 -16 24 8 48 7 7 13
22 13 33 0 26 14 52 45 83 14 14 25 35 25 48 0 39 36 88 65 88 20 0 25 -5 25
-26z m-790 -8 c0 -2 -3 -11 -6 -20 -9 -23 -24 -20 -24 4 0 11 7 20 15 20 8 0
15 -2 15 -4z m623 -32 c11 -11 -5 -34 -24 -34 -18 0 -26 20 -12 33 8 9 28 9
36 1z m-118 -18 c24 -17 14 -43 -24 -59 -31 -13 -96 -89 -125 -144 -14 -29
-22 -33 -55 -33 -25 0 -44 -7 -56 -20 -22 -24 -65 -27 -65 -4 0 30 69 102 105
108 25 5 42 19 69 56 31 44 107 110 126 110 3 0 15 -6 25 -14z m1030 4 c3 -6
0 -12 -7 -14 -7 -2 -30 -9 -51 -16 -43 -13 -64 -3 -54 24 7 18 101 23 112 6z
m-1477 -76 c-5 -27 -48 -32 -48 -5 0 22 30 44 43 31 5 -4 7 -16 5 -26z m819 0
c6 -17 -46 -74 -68 -74 -26 0 -25 38 3 67 22 24 58 28 65 7z m-317 -65 c0 -42
-143 -170 -171 -153 -22 13 -6 52 39 95 83 81 132 102 132 58z m594 -75 c24
-9 20 -29 -18 -84 -19 -27 -36 -55 -38 -62 -2 -6 -12 -9 -21 -5 -13 5 -15 14
-10 39 8 42 31 89 52 105 19 15 16 14 35 7z m-143 -47 c-13 -13 -26 -3 -16 12
3 6 11 8 17 5 6 -4 6 -10 -1 -17z m-1039 -22 c0 -5 -5 -11 -11 -13 -6 -2 -11
4 -11 13 0 9 5 15 11 13 6 -2 11 -8 11 -13z m138 -45 c0 -26 -50 -84 -63 -71
-14 14 -1 57 25 80 24 23 38 19 38 -9z m497 14 c7 -19 -74 -191 -95 -199 -39
-15 -43 34 -7 81 14 18 25 40 25 49 0 8 8 28 17 43 29 44 49 53 60 26z m-283
-10 c7 -19 -39 -64 -65 -64 -23 0 -24 9 -2 40 29 43 56 52 67 24z m661 -14
c11 -17 -5 -70 -21 -70 -21 0 -27 22 -15 53 11 28 25 35 36 17z m-505 -23 c0
-14 -20 -37 -32 -37 -13 0 -9 38 5 43 21 9 27 7 27 -6z m-92 -14 c-4 -22 -38
-30 -38 -10 0 14 13 24 33 26 5 1 7 -7 5 -16z m1299 2 c5 -15 -34 -55 -53 -55
-26 0 -29 32 -4 52 24 20 51 21 57 3z m-162 -60 c0 -15 -7 -20 -30 -20 -16 -1
-43 -6 -59 -13 -30 -13 -56 -10 -56 7 0 14 43 39 76 44 52 8 69 3 69 -18z
m-1155 -104 c0 -22 -10 -38 -42 -65 -43 -37 -62 -44 -73 -26 -7 11 58 105 78
113 28 12 37 6 37 -22z m-804 -88 c-10 -10 -19 5 -10 18 6 11 8 11 12 0 2 -7
1 -15 -2 -18z m975 -55 c-13 -35 -70 -98 -87 -98 -28 0 -26 30 2 64 16 19 37
46 48 61 16 23 20 25 33 13 10 -11 11 -21 4 -40z m-146 22 c9 -15 -14 -40 -36
-40 -21 0 -25 20 -7 38 15 15 35 15 43 2z m-128 -106 c3 -8 -3 -25 -14 -37
-11 -12 -35 -44 -53 -70 l-32 -49 23 -24 23 -24 -28 -29 c-18 -18 -26 -36 -23
-45 10 -25 31 -19 50 14 19 32 60 64 101 80 24 9 28 7 36 -15 12 -31 21 -31
50 0 26 27 46 32 53 13 5 -15 -13 -58 -23 -58 -14 0 -30 -52 -30 -96 0 -30 7
-56 20 -73 l19 -28 -55 -67 c-67 -81 -86 -84 -108 -17 -21 65 -21 67 14 131
26 49 40 110 24 110 -20 0 -43 -26 -63 -72 -37 -84 -48 -103 -67 -106 -30 -7
-34 20 -8 65 24 40 25 63 3 63 -5 0 -30 -19 -54 -41 -37 -35 -47 -39 -60 -29
-23 19 -18 49 15 82 24 24 30 38 30 73 0 24 5 47 10 50 6 3 10 15 10 26 0 24
-27 25 -59 0 -28 -22 -51 -17 -51 9 0 25 47 60 80 60 21 0 39 14 79 60 53 61
77 73 88 44z m-857 -23 c0 -20 -35 -51 -57 -51 -21 0 -15 36 10 53 30 22 47
21 47 -2z m440 -50 c0 -19 -20 -61 -29 -61 -14 0 -19 23 -10 48 8 21 39 32 39
13z m520 -15 c0 -8 -4 -18 -10 -21 -5 -3 -10 3 -10 14 0 12 5 21 10 21 6 0 10
-6 10 -14z m140 -26 c0 -5 -9 -10 -20 -10 -11 0 -20 5 -20 10 0 6 9 10 20 10
11 0 20 -4 20 -10z m-1244 -61 c9 -16 -21 -43 -41 -36 -13 5 -14 11 -5 27 12
22 35 26 46 9z m689 -34 c0 -25 -48 -49 -81 -41 -51 13 -1 69 56 64 17 -2 25
-9 25 -23z m585 -4 c0 -10 -11 -26 -25 -35 -24 -16 -25 -16 -25 7 0 25 17 47
37 47 7 0 13 -8 13 -19z m-42 -70 c8 -5 12 -21 10 -37 -2 -23 -8 -29 -27 -29
-36 0 -50 29 -27 54 21 23 25 24 44 12z m-502 -33 c10 -16 -33 -48 -65 -48
-15 0 -32 -5 -38 -11 -14 -14 -43 -5 -43 14 0 24 33 45 75 50 22 2 45 4 52 5
6 1 15 -3 19 -10z m-226 -48 c0 -11 -7 -20 -15 -20 -8 0 -15 9 -15 20 0 11 7
20 15 20 8 0 15 -9 15 -20z m768 -52 c18 -18 14 -36 -13 -54 -31 -20 -65 -10
-65 20 0 28 18 46 45 46 12 0 26 -5 33 -12z m92 -48 c0 -5 -4 -10 -10 -10 -5
0 -10 5 -10 10 0 6 5 10 10 10 6 0 10 -4 10 -10z m-422 -56 c2 -11 -6 -28 -17
-38 -19 -17 -21 -18 -27 -2 -9 22 13 69 29 64 6 -3 13 -13 15 -24z m-138 2 c0
-8 -4 -17 -9 -21 -12 -7 -24 12 -16 25 9 15 25 12 25 -4z m448 -35 c-3 -22 -8
-26 -40 -29 -29 -2 -38 -9 -48 -32 -11 -26 -42 -45 -54 -32 -18 18 0 46 54 87
66 48 93 50 88 6z m16 -50 c9 -13 -3 -39 -20 -45 -20 -8 -29 20 -14 39 14 17
26 19 34 6z"/>
<path d="M21820 21042 c-28 -13 -134 -97 -159 -125 -13 -15 -37 -35 -55 -44
-17 -9 -60 -42 -96 -73 -36 -31 -90 -74 -120 -95 -30 -22 -79 -61 -108 -87
-30 -26 -58 -48 -64 -48 -6 0 -38 -24 -72 -54 -60 -53 -101 -86 -201 -165 -27
-22 -66 -53 -85 -70 -19 -17 -38 -31 -42 -31 -4 0 -29 -19 -56 -43 -26 -23
-70 -56 -96 -72 -26 -17 -64 -44 -85 -60 -20 -17 -47 -38 -61 -47 -14 -9 -56
-44 -95 -78 -38 -34 -93 -76 -121 -95 -28 -18 -67 -49 -86 -68 -19 -19 -44
-38 -55 -41 -12 -4 -44 -31 -72 -60 -28 -30 -64 -64 -81 -76 -16 -12 -33 -32
-36 -45 -6 -24 24 -94 56 -130 10 -11 30 -43 46 -72 16 -29 73 -106 127 -172
91 -111 146 -161 177 -161 34 0 160 81 254 164 16 14 32 26 37 26 4 0 22 15
41 34 18 18 54 47 79 62 25 16 73 62 107 101 103 120 159 153 229 134 46 -13
75 -42 133 -136 24 -38 58 -84 75 -101 18 -16 56 -64 85 -105 69 -98 87 -116
139 -150 53 -34 105 -37 141 -9 14 11 54 40 90 65 36 24 96 73 134 110 l69 66
-6 55 c-7 67 -30 106 -125 207 -37 40 -86 97 -109 128 -22 30 -58 71 -78 90
-52 49 -75 98 -75 163 0 67 16 87 134 170 83 60 107 66 146 39 61 -41 227
-248 349 -433 24 -36 65 -82 92 -102 41 -32 56 -38 99 -38 43 0 52 4 70 28 12
16 53 51 92 78 39 27 90 66 113 87 23 20 47 37 52 37 19 0 31 25 37 80 l6 55
-50 55 c-28 30 -66 81 -86 113 -20 31 -49 64 -65 72 -42 22 -60 45 -103 129
-26 53 -48 82 -72 97 -19 11 -34 26 -34 33 0 7 -19 35 -42 62 -73 85 -138 169
-343 441 -30 40 -65 79 -77 87 -29 18 -78 27 -98 18z m15 -512 c-5 -8 -11 -8
-17 -2 -6 6 -7 16 -3 22 5 8 11 8 17 2 6 -6 7 -16 3 -22z m-119 -28 c6 -12 21
-33 34 -47 12 -13 19 -29 15 -35 -9 -15 -95 69 -95 93 0 26 31 18 46 -11z
m-247 -128 c34 -43 22 -76 -19 -54 -31 17 -39 80 -10 80 5 0 18 -12 29 -26z
m271 -70 c0 -8 -5 -12 -10 -9 -6 4 -8 11 -5 16 9 14 15 11 15 -7z m-300 -194
c0 -22 -20 -26 -38 -8 -19 19 -14 28 13 28 18 0 25 -5 25 -20z m94 -39 c19
-21 14 -41 -10 -41 -19 0 -56 38 -49 50 10 16 41 11 59 -9z m-97 -83 c30 -28
29 -48 -1 -48 -26 0 -70 45 -60 61 9 16 37 10 61 -13z m-129 -50 c16 -16 15
-38 -2 -38 -18 0 -39 27 -31 40 8 13 18 13 33 -2z m-210 -10 c16 -16 15 -58
-1 -58 -20 0 -37 22 -37 47 0 25 19 30 38 11z m127 -48 c4 -6 4 -18 1 -27 -6
-14 -9 -14 -26 2 -11 10 -20 22 -20 27 0 12 38 10 45 -2z m-452 -68 c21 -19
22 -31 1 -39 -19 -7 -64 34 -57 52 5 15 29 10 56 -13z m687 18 c0 -5 -4 -10
-10 -10 -5 0 -10 5 -10 10 0 6 5 10 10 10 6 0 10 -4 10 -10z m-440 -50 c0 -11
-7 -20 -15 -20 -17 0 -39 36 -30 50 10 16 45 -8 45 -30z m134 0 c31 -47 32
-56 7 -69 -22 -12 -34 -2 -51 43 -11 29 -5 66 9 66 5 0 20 -18 35 -40z m-106
-108 c2 -14 -2 -22 -12 -22 -19 0 -29 17 -22 36 8 22 30 12 34 -14z m-478 -67
c0 -8 -7 -15 -15 -15 -8 0 -15 7 -15 15 0 8 7 15 15 15 8 0 15 -7 15 -15z"/>
<path d="M15710 20963 c-14 -2 -77 -17 -140 -33 -63 -16 -155 -32 -204 -36
-88 -6 -90 -7 -124 -44 -35 -40 -47 -44 -144 -55 -60 -7 -76 -24 -41 -44 26
-14 161 -2 222 20 98 36 520 52 819 32 126 -8 145 -12 166 -32 27 -26 52 -80
61 -133 4 -28 13 -42 33 -52 39 -20 167 -54 235 -62 37 -4 72 -16 100 -34 51
-34 117 -47 157 -30 40 17 80 78 80 123 0 31 -6 41 -45 71 -56 42 -174 80
-225 72 -45 -7 -76 13 -85 53 -8 36 -19 46 -74 66 -23 8 -56 24 -72 36 -17 12
-59 25 -97 31 -37 6 -89 17 -117 24 -91 25 -178 34 -330 33 -82 -1 -161 -4
-175 -6z"/>
<path d="M14881 20709 c-58 -11 -72 -32 -28 -39 67 -11 152 18 117 40 -17 11
-29 11 -89 -1z"/>
<path d="M14688 20641 c-44 -5 -62 -12 -73 -28 -10 -14 -30 -24 -58 -28 -23
-3 -49 -7 -57 -8 -8 -2 -27 -15 -42 -30 -20 -20 -37 -27 -65 -27 -30 0 -44 -6
-65 -30 -17 -20 -39 -32 -67 -36 -26 -4 -49 -15 -60 -30 -10 -13 -37 -30 -60
-40 -22 -9 -41 -20 -41 -24 0 -5 -23 -19 -50 -31 -28 -12 -57 -33 -65 -45 -8
-13 -33 -28 -55 -34 -23 -6 -43 -17 -46 -25 -3 -8 -21 -17 -40 -21 -21 -4 -42
-17 -54 -34 -13 -18 -33 -30 -55 -34 -26 -5 -39 -14 -45 -32 -8 -19 -16 -24
-38 -22 -31 2 -50 -11 -153 -99 -33 -29 -85 -69 -116 -90 -31 -21 -76 -53
-102 -70 -25 -18 -62 -44 -83 -57 -20 -14 -39 -29 -42 -34 -10 -16 -69 -23
-105 -12 -19 5 -46 21 -60 34 -14 14 -70 47 -123 75 -94 48 -169 97 -177 114
-2 5 -22 17 -45 27 -23 10 -57 31 -75 48 -19 17 -48 33 -65 36 -17 3 -48 15
-68 26 -49 26 -98 36 -238 50 -132 12 -384 -6 -436 -32 -16 -9 -52 -23 -80
-32 -29 -9 -60 -26 -70 -37 -11 -12 -39 -32 -64 -45 -25 -14 -67 -43 -95 -65
-27 -22 -73 -55 -101 -73 -28 -19 -60 -46 -73 -62 -12 -16 -41 -54 -64 -84
-24 -30 -71 -99 -106 -152 -35 -54 -67 -98 -70 -98 -11 0 -69 -103 -76 -135
-4 -16 -22 -61 -41 -100 -60 -124 -92 -209 -99 -260 -4 -27 -21 -83 -38 -124
-41 -101 -42 -101 -309 -101 -180 0 -223 -3 -280 -19 -74 -21 -148 -74 -168
-119 -6 -15 -35 -47 -64 -71 -29 -24 -92 -92 -142 -151 -49 -59 -104 -118
-122 -131 -17 -13 -45 -44 -62 -69 -16 -25 -47 -59 -68 -77 -32 -26 -203 -227
-214 -251 -2 -4 -24 -23 -49 -42 -56 -42 -170 -164 -267 -283 -40 -49 -95
-106 -123 -128 -27 -22 -76 -72 -107 -111 -104 -129 -206 -244 -247 -278 -84
-71 -128 -117 -162 -170 -32 -50 -98 -118 -293 -304 -42 -40 -79 -86 -90 -110
-10 -25 -44 -67 -81 -101 -120 -110 -234 -231 -279 -295 -25 -35 -65 -82 -89
-104 -25 -23 -62 -58 -84 -78 -22 -21 -43 -38 -48 -38 -5 0 -20 -18 -34 -41
-38 -59 -202 -240 -286 -315 -53 -47 -79 -76 -154 -173 -48 -62 -263 -281
-275 -281 -5 0 -16 -13 -24 -28 -8 -16 -39 -53 -68 -83 -29 -30 -66 -73 -82
-96 -16 -24 -32 -43 -37 -43 -11 0 -198 -189 -218 -221 -9 -14 -49 -56 -89
-93 -59 -56 -124 -139 -166 -213 -4 -7 -15 -52 -26 -101 -18 -83 -18 -91 -3
-142 16 -50 18 -170 23 -1240 l5 -1185 34 -58 c42 -72 63 -87 123 -87 35 0 65
-9 105 -30 64 -34 99 -37 188 -13 55 15 70 15 118 3 71 -17 115 -10 207 30 70
31 77 32 160 26 l86 -7 40 39 c36 36 47 40 134 56 52 9 118 20 145 26 28 5 95
17 150 25 56 9 107 23 117 32 28 25 131 27 243 5 75 -15 113 -18 150 -12 28 5
97 9 155 10 153 1 259 17 345 51 11 4 36 13 56 19 20 6 45 20 55 31 11 12 32
28 49 36 16 9 62 47 101 85 76 74 145 119 228 148 28 10 74 27 101 38 28 11
91 28 140 37 50 9 106 24 125 32 19 8 72 26 118 39 46 13 93 30 105 38 25 16
47 21 163 42 47 8 98 21 112 28 15 8 68 21 117 30 50 9 111 25 136 36 25 10
84 24 131 30 47 5 111 19 141 29 30 11 82 22 114 26 32 4 77 15 100 25 24 11
80 26 126 34 46 9 127 32 181 51 54 19 108 35 120 35 11 0 50 14 85 30 39 19
100 36 159 46 52 8 110 21 128 29 18 7 70 21 116 29 46 9 106 24 133 35 28 10
82 22 120 26 39 4 102 17 140 30 39 13 90 27 115 30 25 4 86 20 135 35 50 15
113 31 140 34 28 4 75 20 106 36 31 15 89 33 130 39 41 7 103 25 139 41 42 19
95 33 150 39 47 5 102 17 123 26 21 8 73 22 116 30 44 9 104 24 135 35 31 10
84 22 119 26 34 4 89 17 123 29 34 13 90 28 126 33 36 6 90 22 119 35 30 14
89 30 132 36 43 6 94 19 115 30 20 10 81 28 135 40 54 12 116 31 138 42 23 11
78 24 127 30 48 5 107 18 132 29 25 10 79 21 120 25 44 4 97 17 129 31 34 15
90 28 150 35 55 6 114 19 138 30 23 11 81 27 128 34 53 9 97 22 116 36 19 13
57 25 102 31 40 5 101 18 137 28 36 10 123 27 193 38 75 11 135 26 145 35 17
15 141 57 170 57 9 0 39 9 67 19 27 11 88 24 135 30 47 6 103 20 125 31 25 12
79 24 144 30 57 6 124 18 149 27 45 15 47 15 64 -8 l19 -22 15 21 c8 12 21 22
27 22 7 0 41 14 75 30 102 48 142 36 138 -40 -1 -22 0 -40 4 -40 3 0 7 -18 8
-41 4 -59 54 -179 75 -179 4 0 19 -12 32 -27 28 -31 53 -107 56 -168 1 -22 11
-57 22 -77 22 -40 20 -86 -7 -140 -24 -48 -21 -120 7 -146 26 -24 69 -42 102
-42 23 0 23 2 22 88 -1 132 10 191 45 230 29 33 29 34 24 135 -8 173 20 262
81 255 25 -3 29 -8 33 -48 10 -78 76 -148 136 -141 18 2 62 72 83 132 11 30
25 54 33 54 39 0 60 -164 26 -202 -12 -13 -18 -36 -18 -69 0 -54 -4 -63 -39
-82 -20 -12 -25 -12 -32 0 -7 10 -9 8 -9 -6 0 -13 -5 -17 -20 -13 -11 3 -23 1
-26 -4 -3 -5 -13 -9 -23 -9 -35 0 -60 -41 -67 -113 -6 -55 -4 -71 10 -86 15
-16 15 -20 0 -49 -8 -18 -20 -32 -25 -32 -6 0 -22 -13 -36 -30 -13 -16 -33
-30 -44 -30 -10 0 -23 -9 -29 -20 -6 -12 -22 -25 -34 -30 -21 -8 -23 -13 -18
-62 4 -50 25 -91 69 -136 30 -31 34 -51 18 -89 -13 -30 -14 -43 -4 -68 16 -39
31 -58 38 -48 3 5 35 32 69 61 54 44 70 52 105 52 63 0 72 10 74 81 2 88 10
120 36 150 25 29 119 79 148 79 21 0 25 20 8 37 -16 16 -3 43 21 43 14 0 20
-7 20 -23 0 -13 -5 -28 -10 -33 -8 -8 5 -27 41 -65 28 -30 60 -73 70 -96 11
-23 24 -45 29 -48 6 -3 10 -15 10 -25 0 -11 13 -34 29 -52 29 -33 42 -75 44
-137 0 -38 -27 -68 -72 -76 -14 -3 -47 -10 -72 -16 -48 -11 -79 -5 -79 16 0
17 33 45 54 45 9 0 30 7 46 15 27 14 31 20 30 40 -1 3 6 13 15 21 12 13 13 19
4 30 -7 8 -14 12 -17 9 -3 -3 -11 0 -19 6 -12 11 -42 19 -126 36 -20 4 -34 -1
-51 -18 -58 -58 -93 -87 -120 -100 -33 -16 -96 -115 -96 -152 0 -24 -47 -70
-85 -83 -27 -9 -51 -10 -78 -4 -36 8 -42 6 -76 -25 -24 -22 -57 -39 -97 -49
-33 -8 -74 -23 -92 -32 -33 -16 -122 -16 -184 1 -22 6 -38 -1 -87 -35 -57 -40
-65 -43 -153 -49 -86 -7 -96 -10 -140 -43 -37 -29 -60 -38 -105 -43 -32 -3
-80 -17 -108 -30 -68 -31 -177 -62 -250 -70 -84 -9 -253 -51 -281 -70 -13 -8
-56 -22 -96 -30 -40 -9 -100 -24 -133 -34 -33 -11 -82 -22 -109 -26 -28 -4
-72 -16 -99 -26 -28 -11 -85 -25 -128 -30 -43 -6 -114 -24 -156 -41 -43 -16
-98 -35 -123 -42 -25 -8 -74 -25 -110 -40 -36 -15 -106 -33 -156 -41 -50 -8
-123 -26 -162 -40 -39 -14 -87 -25 -105 -25 -18 0 -65 -11 -103 -24 -38 -13
-100 -26 -138 -30 -37 -5 -94 -17 -125 -27 -31 -11 -94 -29 -141 -40 -46 -12
-101 -29 -122 -40 -21 -11 -80 -28 -131 -39 -50 -10 -112 -28 -137 -39 -25
-11 -74 -25 -109 -31 -36 -6 -83 -21 -105 -32 -23 -12 -83 -27 -136 -35 -52
-8 -115 -23 -140 -34 -25 -11 -80 -27 -122 -35 -43 -8 -95 -21 -117 -29 -23
-8 -78 -19 -123 -25 -46 -6 -110 -22 -143 -35 -33 -13 -89 -31 -125 -39 -36
-8 -99 -26 -140 -40 -41 -14 -102 -32 -135 -40 -33 -8 -85 -22 -115 -31 -30
-8 -87 -22 -127 -30 -39 -7 -90 -23 -113 -35 -22 -11 -78 -26 -123 -31 -45 -6
-111 -22 -147 -34 -36 -13 -94 -29 -130 -35 -35 -7 -81 -20 -102 -31 -20 -10
-82 -26 -137 -34 -55 -8 -115 -21 -133 -30 -18 -8 -68 -21 -112 -30 -43 -8
-99 -24 -125 -36 -25 -11 -93 -27 -152 -34 -64 -8 -121 -22 -145 -34 -22 -11
-63 -25 -91 -30 -28 -6 -77 -20 -109 -31 -86 -32 -112 -38 -189 -45 -38 -4
-95 -17 -125 -30 -30 -12 -75 -25 -99 -29 -24 -4 -75 -20 -113 -36 -38 -16
-104 -34 -146 -39 -42 -6 -108 -22 -147 -36 -38 -13 -84 -25 -102 -25 -18 0
-67 -11 -110 -24 -43 -14 -109 -28 -148 -32 -39 -4 -103 -20 -143 -36 -47 -19
-100 -31 -145 -35 -45 -3 -82 -12 -97 -22 -49 -34 -69 -41 -170 -56 -56 -8
-110 -20 -120 -25 -10 -5 -42 -15 -72 -21 -29 -6 -80 -25 -113 -41 -53 -28
-74 -32 -190 -39 -71 -5 -151 -11 -178 -13 -26 -3 -61 0 -78 6 -18 6 -34 7
-38 2 -3 -5 -26 -20 -50 -33 -24 -13 -52 -32 -62 -42 -27 -27 -47 -23 -85 16
-18 19 -40 35 -48 35 -9 0 -16 6 -16 13 0 11 -38 45 -92 85 -9 7 -47 16 -82
21 -92 11 -120 -10 -76 -57 12 -12 18 -22 14 -22 -4 0 2 -9 14 -20 13 -12 35
-20 55 -20 37 0 85 -20 98 -41 17 -28 -12 -52 -107 -88 -40 -16 -151 -6 -174
14 -29 26 -61 102 -55 128 7 27 -5 39 -44 43 -14 2 -29 10 -33 19 -5 8 -14 15
-21 15 -22 0 -132 58 -152 80 -45 49 -146 69 -228 45 -71 -21 -153 -20 -173 3
-33 37 -74 108 -74 130 0 13 -12 34 -27 47 -16 13 -22 25 -15 25 7 0 12 13 12
29 0 16 7 37 16 46 13 13 14 21 6 40 -7 15 -17 22 -25 19 -8 -3 -41 -1 -74 5
-75 12 -136 53 -198 134 -38 48 -49 56 -61 47 -23 -20 -34 -80 -40 -226 -5
-125 -3 -144 15 -184 11 -25 20 -40 20 -34 1 6 11 10 24 8 12 -1 27 -3 34 -3
7 -1 17 -11 24 -22 9 -18 7 -25 -9 -41 -21 -21 -23 -21 -65 18 -17 16 -46 -85
-48 -166 -1 -72 9 -137 22 -146 18 -11 8 -54 -19 -86 -16 -18 -32 -41 -35 -51
-4 -10 -7 -515 -8 -1122 -1 -870 2 -1108 12 -1126 7 -13 24 -39 38 -57 23 -30
41 -43 125 -89 11 -6 91 -21 176 -33 133 -19 168 -20 245 -11 49 6 146 15 215
20 69 6 155 19 192 30 37 11 94 22 125 26 32 4 99 17 148 30 50 13 124 30 165
38 41 8 98 24 125 35 28 11 84 27 125 35 41 8 100 24 130 35 30 11 84 24 120
30 36 5 86 19 111 30 25 12 92 28 147 36 56 9 115 22 130 30 15 8 57 19 92 26
36 6 97 21 135 34 39 13 106 29 150 36 44 7 91 18 105 25 14 7 59 18 100 25
112 18 152 30 181 54 20 17 49 25 123 34 53 7 124 23 158 36 35 13 90 29 123
34 33 6 87 19 120 31 33 11 100 27 149 36 49 9 100 22 115 30 15 7 58 18 96
23 39 5 98 21 132 36 34 14 77 26 95 26 42 0 158 27 174 41 7 6 49 17 93 24
50 9 108 28 149 49 46 23 87 36 130 40 35 3 103 19 150 36 47 16 105 30 129
30 23 0 65 9 94 20 28 11 95 29 148 39 53 11 110 25 126 31 17 6 64 18 107 25
42 8 98 25 126 39 45 23 76 29 188 40 41 4 75 17 104 41 8 7 47 15 86 18 53 4
89 14 134 37 37 19 101 39 159 50 53 10 114 25 136 33 22 9 69 18 104 22 35 3
85 17 110 29 26 13 85 28 136 35 50 7 110 21 135 32 25 11 77 24 115 28 68 8
125 27 125 41 0 14 55 30 134 40 51 6 95 19 124 35 27 15 76 30 121 37 42 6
99 21 126 34 28 13 81 28 118 33 37 5 96 19 130 30 34 11 96 25 137 31 41 6
93 20 115 31 22 11 82 26 134 34 52 8 109 24 128 35 19 11 68 24 113 29 53 7
99 20 138 40 34 17 95 36 145 45 47 8 102 23 124 34 21 11 67 23 103 27 37 4
86 17 113 31 31 16 79 28 135 35 53 6 107 20 137 34 28 13 79 27 115 31 36 3
91 18 124 31 32 13 96 30 141 38 46 7 95 21 109 30 30 20 125 45 171 45 17 0
55 12 85 26 30 14 99 34 152 44 53 10 110 25 125 34 16 8 47 17 68 21 69 11
129 27 167 47 21 10 78 22 127 27 52 6 109 19 137 31 26 12 76 26 111 31 35 5
99 23 141 39 43 16 105 35 137 41 32 6 81 19 108 30 27 11 83 24 125 31 43 6
98 21 125 35 26 13 89 32 141 42 51 11 108 27 125 36 18 9 71 22 117 30 47 8
96 21 109 29 12 8 76 22 140 30 77 10 128 22 149 35 17 11 73 29 123 40 51 11
106 27 124 36 17 9 74 23 126 31 52 8 107 21 122 29 16 8 68 23 117 33 49 11
122 31 161 46 40 14 87 26 104 26 17 0 59 11 93 25 35 14 86 32 114 40 35 11
53 22 59 38 4 12 8 670 8 1462 l0 1440 27 45 c14 25 32 72 39 105 7 33 23 79
35 102 12 23 24 71 28 110 4 37 18 123 32 191 22 114 24 145 24 420 -1 201 -5
326 -15 387 -7 50 -18 119 -23 155 -6 36 -16 119 -23 185 -6 66 -22 156 -35
199 -13 44 -24 93 -24 110 -1 52 -37 229 -56 276 -17 41 -19 78 -19 440 0 217
-4 403 -9 414 -5 10 -34 30 -65 43 -30 14 -65 34 -76 44 -45 44 -112 93 -153
111 -24 11 -64 33 -89 50 -25 17 -86 44 -136 59 -49 16 -98 35 -107 44 -9 8
-35 21 -59 30 -23 8 -54 23 -69 33 -15 10 -47 26 -71 36 -25 10 -62 31 -82 47
-20 16 -41 29 -46 29 -6 0 -39 15 -74 34 -35 19 -84 39 -109 46 -25 6 -54 17
-65 24 -11 7 -42 20 -70 30 -27 10 -68 26 -90 35 -22 10 -62 24 -90 30 -27 7
-63 21 -80 31 -16 10 -52 24 -80 31 -27 7 -66 23 -85 35 -19 13 -65 32 -101
44 -36 11 -77 29 -91 39 -13 11 -55 27 -92 35 -36 9 -83 24 -104 35 -20 10
-61 24 -91 30 -30 6 -69 20 -86 31 -17 11 -65 26 -106 35 -41 8 -90 22 -109
29 -20 8 -58 17 -85 21 -28 4 -77 20 -110 36 -33 15 -93 35 -133 44 -40 8 -86
22 -102 30 -16 8 -59 22 -96 30 -36 9 -94 27 -129 40 -34 13 -100 31 -146 40
-46 9 -104 26 -128 36 -25 11 -83 24 -130 28 -47 5 -107 18 -132 29 -25 11
-82 26 -125 33 -43 6 -110 23 -147 36 -38 13 -105 28 -150 33 -45 5 -121 20
-168 33 -47 14 -119 29 -160 32 -41 4 -105 18 -142 31 -41 14 -114 27 -188 34
-66 6 -148 20 -182 31 -34 11 -93 25 -132 31 -90 14 -123 26 -141 52 -8 13
-18 73 -24 141 -7 82 -19 145 -39 204 -16 47 -36 111 -45 141 -9 30 -37 87
-61 125 -25 39 -54 86 -64 106 -20 36 -192 199 -211 199 -5 0 -31 14 -57 30
-26 17 -56 30 -68 30 -12 0 -36 11 -54 24 -18 14 -51 28 -72 31 -22 4 -77 19
-122 35 -45 15 -96 31 -114 34 -46 10 -51 38 -16 90 31 47 222 230 264 251 14
8 38 30 53 50 42 54 128 140 156 155 14 7 58 37 97 67 40 30 89 61 108 69 20
8 38 21 42 30 5 14 82 70 145 106 17 9 40 25 52 36 27 25 161 96 208 111 20 7
42 18 48 26 6 8 35 21 63 31 65 21 83 34 65 45 -7 5 -15 8 -18 7 -3 0 -31 -4
-62 -7z m-2620 -1138 c37 -32 76 -77 87 -99 60 -119 84 -183 90 -249 6 -63 5
-74 -17 -105 -12 -20 -31 -52 -42 -72 -21 -41 -69 -69 -163 -93 -52 -14 -60
-13 -116 5 -33 11 -66 20 -73 20 -7 0 -30 21 -51 47 -21 25 -49 58 -62 71 -13
14 -35 51 -49 81 -20 46 -25 71 -24 141 0 47 5 97 11 112 14 36 114 145 165
181 38 27 47 29 109 24 66 -4 69 -6 135 -64z m-2868 -2213 c0 -10 -32 -62 -80
-128 -17 -24 -38 -58 -46 -77 -7 -19 -37 -53 -66 -77 -59 -47 -155 -154 -198
-220 -30 -47 -225 -248 -285 -293 -20 -16 -52 -52 -70 -81 -39 -61 -136 -151
-285 -267 -8 -7 -34 -27 -56 -44 -23 -18 -47 -33 -53 -33 -20 0 -11 29 19 63
17 19 30 38 30 42 0 4 12 19 28 35 125 126 165 173 196 225 19 33 59 84 88
113 29 29 76 76 103 104 28 28 59 58 69 67 37 29 79 76 101 111 33 51 160 180
177 180 8 0 43 29 77 65 35 36 66 65 70 65 3 0 20 19 36 41 27 38 120 117 138
118 4 1 7 -3 7 -9z m5135 -1628 l30 -9 -25 -13 c-18 -10 -106 -16 -321 -23
-266 -9 -342 -7 -327 8 7 8 267 37 276 31 4 -3 46 1 92 8 91 14 226 13 275 -2z
m5166 -1234 c8 -15 10 -56 5 -137 -7 -111 -17 -146 -40 -138 -31 10 -35 269
-4 288 20 13 26 11 39 -13z m-2421 -429 c0 -20 -15 -26 -25 -9 -9 15 3 43 15
35 5 -3 10 -15 10 -26z m574 -81 c9 -12 16 -31 16 -42 0 -10 7 -24 17 -31 10
-7 14 -19 10 -29 -6 -15 -9 -16 -38 0 -21 10 -52 15 -93 14 -33 -1 -67 -2 -73
-1 -15 1 -18 41 -4 41 5 0 12 8 15 18 7 20 69 50 108 51 17 1 32 -7 42 -21z
m516 -567 c0 -14 -52 -61 -68 -61 -12 0 -12 3 0 23 8 12 18 28 22 35 8 14 46
17 46 3z m-10330 -997 c0 4 14 -2 30 -14 17 -12 30 -28 30 -36 0 -20 36 -91
67 -132 13 -18 27 -48 30 -67 5 -32 4 -34 -31 -40 -20 -4 -70 -5 -112 -3 -70
3 -78 6 -99 32 -26 32 -42 80 -50 151 -4 41 -2 54 15 74 26 30 90 53 108 39 6
-6 12 -7 12 -4z m-1052 -2421 c30 -18 44 -56 33 -86 -9 -23 -64 -76 -82 -78
-5 -1 -13 -2 -18 -3 -5 0 -13 -4 -17 -8 -11 -12 -92 -10 -99 2 -3 6 -14 10
-24 10 -32 0 -76 28 -95 60 -13 23 -24 30 -38 27 -24 -7 -45 38 -27 59 15 18
26 18 57 -4 33 -23 70 -33 77 -21 3 4 12 5 21 2 16 -6 84 26 84 40 0 14 44 26
75 20 17 -3 40 -12 53 -20z m772 -107 c0 -2 -7 -7 -16 -10 -8 -3 -12 -2 -9 4
6 10 25 14 25 6z m-825 -186 c3 -5 15 -10 26 -10 35 0 21 -28 -16 -32 -45 -5
-59 4 -50 31 7 22 29 28 40 11z"/>
<path d="M2390 19232 c-102 -49 -284 -222 -342 -325 -18 -32 -49 -79 -68 -105
-40 -53 -49 -71 -80 -156 -11 -32 -30 -78 -41 -102 -42 -93 -56 -389 -21 -451
7 -12 12 -31 12 -42 0 -12 4 -29 9 -39 5 -9 20 -42 34 -72 54 -122 209 -286
320 -339 164 -78 217 -94 324 -98 91 -4 112 -1 180 22 126 44 299 167 488 347
227 216 272 237 425 199 41 -10 50 -19 98 -89 61 -91 66 -130 28 -214 -13 -29
-29 -67 -36 -85 -6 -17 -40 -60 -73 -95 -52 -54 -82 -74 -188 -126 -69 -34
-133 -62 -143 -62 -28 0 -95 -39 -113 -66 -14 -21 -14 -31 -5 -58 7 -18 12
-43 12 -57 0 -13 11 -40 24 -59 13 -19 49 -85 80 -145 34 -65 75 -128 101
-154 40 -41 48 -45 92 -44 49 0 121 33 281 126 80 46 94 58 203 161 80 76 159
179 159 205 0 6 29 72 65 146 36 75 72 157 81 183 8 26 19 56 24 67 5 11 16
57 24 101 19 94 10 256 -18 334 -9 25 -16 60 -16 78 0 24 -17 59 -57 120 -32
48 -62 96 -69 107 -63 110 -358 301 -497 321 -23 3 -62 13 -86 21 -36 11 -59
12 -120 3 -148 -21 -197 -38 -291 -99 -14 -9 -38 -23 -53 -31 -31 -15 -106
-89 -159 -157 -55 -70 -226 -226 -290 -265 -46 -28 -73 -38 -104 -38 -71 0
-174 67 -174 112 0 22 21 138 36 201 6 25 43 70 85 103 8 6 31 31 51 56 36 43
123 98 155 98 8 0 28 13 44 29 23 23 29 38 29 71 0 47 -26 104 -65 140 -14 13
-36 40 -48 60 -11 19 -53 70 -91 113 -68 75 -71 77 -115 76 -28 0 -68 -11
-101 -27z m987 -916 c-4 -9 -11 -16 -17 -16 -11 0 -14 33 -3 44 11 10 26 -11
20 -28z m133 -33 c-1 -25 -26 -56 -39 -48 -15 8 -14 38 1 53 18 18 38 15 38
-5z m-685 -53 c0 -29 -32 -41 -41 -16 -9 24 4 48 23 44 12 -2 18 -12 18 -28z
m-395 -6 c0 -26 -22 -94 -31 -94 -4 0 -14 7 -23 15 -16 16 -9 53 16 82 15 18
38 16 38 -3z m1264 -71 c-15 -24 -33 -27 -41 -7 -8 21 26 49 41 34 7 -7 7 -16
0 -27z m-1474 -8 c0 -8 -4 -15 -9 -15 -13 0 -22 16 -14 24 11 11 23 6 23 -9z
m370 -25 c0 -5 -13 -25 -30 -43 -16 -19 -30 -42 -30 -51 0 -20 -29 -66 -41
-66 -5 0 -9 14 -9 30 0 26 21 67 65 126 11 16 45 19 45 4z m1224 -9 c3 -4 -3
-16 -14 -26 -19 -17 -20 -17 -26 0 -9 23 27 47 40 26z m-1026 -19 c2 -7 -3
-12 -12 -12 -9 0 -16 7 -16 16 0 17 22 14 28 -4z m-121 -88 c2 -6 -5 -22 -16
-35 -15 -19 -22 -21 -32 -12 -10 10 -10 18 -1 38 12 26 42 31 49 9z m243 -113
c0 -23 -16 -36 -25 -21 -9 14 1 40 15 40 5 0 10 -9 10 -19z m1120 -316 c0 -8
-4 -15 -10 -15 -5 0 -10 7 -10 15 0 8 5 15 10 15 6 0 10 -7 10 -15z m-330
-115 c0 -5 -4 -10 -10 -10 -5 0 -10 5 -10 10 0 6 5 10 10 10 6 0 10 -4 10 -10z"/>
<path d="M23105 19214 c-11 -9 -46 -29 -79 -45 -32 -15 -72 -39 -90 -52 -17
-13 -85 -52 -151 -87 -66 -35 -156 -82 -200 -105 -44 -24 -105 -55 -135 -70
-30 -15 -62 -31 -70 -36 -8 -5 -42 -23 -75 -40 -33 -17 -73 -39 -90 -48 -16
-10 -43 -22 -60 -26 -16 -3 -58 -20 -93 -36 -35 -16 -66 -29 -69 -29 -4 0 -14
-6 -22 -14 -9 -7 -65 -39 -126 -71 -60 -31 -114 -61 -120 -66 -5 -5 -16 -9
-25 -9 -8 0 -60 -27 -114 -60 -55 -33 -107 -60 -116 -60 -9 0 -20 -4 -26 -10
-5 -5 -59 -35 -119 -65 -207 -106 -251 -134 -263 -169 -14 -38 -15 -78 -3 -91
5 -6 19 -39 31 -75 13 -36 31 -75 40 -88 10 -12 26 -44 35 -70 10 -27 31 -66
46 -88 26 -35 51 -82 83 -154 6 -13 21 -34 34 -45 24 -21 78 -122 257 -482
114 -229 132 -253 201 -253 38 0 197 71 293 132 25 15 52 28 61 28 18 0 61 42
79 77 18 35 13 68 -20 130 -68 124 -81 147 -103 177 -20 28 -82 149 -110 216
-6 14 -30 56 -53 95 -24 38 -43 79 -43 90 0 36 37 82 87 106 37 19 48 29 48
48 0 13 6 26 13 28 6 3 12 -1 12 -7 0 -12 16 -11 97 6 27 5 36 1 70 -33 45
-45 83 -115 109 -198 10 -33 28 -74 40 -91 13 -17 35 -58 49 -90 54 -120 66
-141 101 -182 55 -64 90 -61 262 29 233 121 232 121 252 168 9 24 6 37 -23
102 -19 41 -58 112 -86 159 -28 47 -51 88 -51 92 0 3 -21 42 -46 85 -66 109
-94 177 -94 223 0 32 6 43 33 63 59 45 180 100 220 100 67 0 124 -75 208 -274
38 -89 60 -130 90 -164 10 -11 37 -58 60 -105 50 -101 62 -117 99 -125 27 -6
55 6 240 101 25 13 51 24 59 24 7 0 26 11 43 25 16 14 42 25 57 25 43 0 66 33
65 94 0 54 -7 71 -134 311 -109 207 -289 559 -329 645 -85 179 -158 306 -190
327 -40 27 -115 31 -146 7z m15 -389 c13 -16 6 -35 -15 -35 -15 0 -24 19 -17
38 6 16 17 15 32 -3z m38 -131 c-4 -25 -32 -24 -36 0 -4 21 18 40 31 27 5 -5
7 -17 5 -27z m-201 -96 c9 -14 13 -33 9 -43 -6 -17 -7 -17 -26 0 -21 19 -28
79 -9 73 6 -2 18 -15 26 -30z m411 -9 c-2 -6 -8 -10 -13 -10 -5 0 -11 4 -13
10 -2 6 4 11 13 11 9 0 15 -5 13 -11z m-300 -91 c12 -47 9 -60 -13 -51 -10 3
-15 20 -15 49 0 56 14 57 28 2z m-461 16 c-3 -3 -12 -4 -19 -1 -8 3 -5 6 6 6
11 1 17 -2 13 -5z m103 -20 c0 -16 -16 -19 -25 -4 -8 13 4 32 16 25 5 -4 9
-13 9 -21z m490 -26 l0 -32 -21 21 c-22 22 -19 43 7 43 9 0 14 -11 14 -32z
m-576 -44 c7 -19 -1 -34 -19 -34 -18 0 -28 17 -21 35 7 20 32 19 40 -1z m-268
-50 c-5 -13 -10 -14 -18 -6 -6 6 -8 18 -4 28 5 13 10 14 18 6 6 -6 8 -18 4
-28z m97 -70 c-8 -20 -37 -13 -41 10 -5 26 20 40 35 20 6 -9 9 -22 6 -30z
m748 21 c-1 -15 -24 -12 -29 3 -3 9 2 13 12 10 10 -1 17 -7 17 -13z m-647 -1
c23 -9 21 -54 -3 -54 -24 0 -45 25 -37 45 6 16 16 18 40 9z m-197 -59 c31 -31
53 -58 50 -61 -23 -24 -127 52 -127 92 0 36 17 29 77 -31z m311 -24 c3 -16 -1
-22 -10 -19 -7 3 -15 15 -16 27 -3 16 1 22 10 19 7 -3 15 -15 16 -27z m-338
-66 c0 -25 -14 -34 -24 -16 -8 12 3 41 15 41 5 0 9 -11 9 -25z m238 -14 c12
-21 22 -41 22 -45 0 -16 -37 -3 -62 21 -35 33 -37 63 -5 63 17 0 30 -11 45
-39z m-467 0 c31 -31 37 -55 17 -67 -14 -9 -68 53 -68 78 0 26 17 22 51 -11z
m-242 -36 c54 -71 67 -103 45 -112 -23 -9 -42 5 -91 66 -50 60 -57 101 -19
101 17 0 35 -15 65 -55z m-239 15 c0 -5 -2 -10 -4 -10 -3 0 -8 5 -11 10 -3 6
-1 10 4 10 6 0 11 -4 11 -10z m44 -59 c24 -26 17 -65 -11 -69 -21 -3 -23 1
-23 42 0 50 8 56 34 27z m-134 -36 c0 -8 -4 -15 -9 -15 -13 0 -22 16 -14 24
11 11 23 6 23 -9z m519 -1 c18 -9 37 -25 44 -35 6 -10 20 -19 29 -19 19 0 24
-15 9 -25 -5 -3 -16 2 -24 10 -9 8 -22 15 -29 16 -23 1 -73 35 -76 52 -4 21 6
21 47 1z m194 1 c7 -16 -8 -29 -23 -20 -15 9 -12 35 4 35 8 0 16 -7 19 -15z
m207 -46 c0 -5 -4 -9 -10 -9 -5 0 -10 7 -10 16 0 8 5 12 10 9 6 -3 10 -10 10
-16z m-695 3 c14 -10 35 -71 26 -77 -15 -9 -41 20 -47 53 -6 31 1 39 21 24z
m-95 -82 c9 -17 8 -20 -10 -20 -13 0 -20 7 -20 20 0 11 4 20 10 20 5 0 14 -9
20 -20z m200 -61 c30 -63 30 -89 -1 -89 -32 0 -74 125 -48 141 8 5 15 9 17 9
1 0 15 -27 32 -61z m-327 4 c-3 -7 -9 -13 -14 -13 -11 0 -12 34 -2 43 9 10 22
-13 16 -30z m116 -75 c41 -42 40 -58 -2 -58 -46 0 -75 36 -68 83 3 18 41 4 70
-25z m65 -191 c15 -21 17 -30 8 -39 -16 -16 -52 17 -52 49 0 30 17 26 44 -10z
m126 -262 c0 -26 -14 -33 -25 -15 -9 14 1 40 15 40 5 0 10 -11 10 -25z"/>
<path d="M16507 13652 c-36 -42 -72 -210 -51 -243 8 -14 82 -11 91 4 22 35 53
127 53 159 0 42 -18 88 -34 89 -6 0 -19 2 -28 4 -9 2 -23 -4 -31 -13z"/>
<path d="M16889 13406 c-39 -47 -84 -90 -100 -96 -29 -12 -66 -73 -60 -100 2
-8 9 -22 17 -30 7 -8 22 -25 34 -37 11 -13 26 -23 34 -23 8 0 33 28 57 63 23
34 66 85 96 114 29 28 53 57 53 64 0 7 9 23 20 34 l21 22 -23 36 c-39 61 -65
52 -149 -47z"/>
<path d="M16572 12638 c-18 -18 -15 -28 9 -28 28 0 61 19 54 31 -9 13 -49 11
-63 -3z"/>
<path d="M16525 12578 c-39 -22 -48 -53 -13 -42 22 7 47 31 48 47 0 10 -11 8
-35 -5z"/>
<path d="M17022 12330 c-10 -16 -10 -20 2 -20 17 0 38 24 29 33 -10 11 -17 8
-31 -13z"/>
<path d="M6051 11299 c-14 -41 -14 -62 1 -111 14 -47 30 -55 120 -61 83 -6
135 -28 150 -64 6 -15 13 -61 14 -102 2 -58 6 -78 20 -88 25 -18 12 -26 -51
-31 -54 -4 -56 -4 -98 40 -53 55 -109 98 -129 98 -20 0 -38 -42 -38 -88 0 -50
18 -112 33 -113 7 0 34 -1 61 -2 47 -2 52 -5 90 -53 23 -28 60 -63 84 -79 23
-15 50 -41 59 -59 9 -17 19 -33 23 -36 4 -3 15 -22 25 -44 18 -38 19 -38 27
-15 5 13 19 34 30 46 25 27 52 143 38 157 -6 6 -10 20 -10 31 0 12 -9 30 -20
40 -23 21 -25 37 -8 68 39 70 37 128 -9 194 -11 15 -28 55 -37 88 -10 33 -24
74 -32 92 -8 17 -14 36 -14 42 0 14 4 13 -103 15 -72 2 -91 5 -98 19 -6 9 -17
17 -25 17 -8 0 -17 7 -20 15 -4 9 -19 15 -39 15 -28 0 -35 -5 -44 -31z"/>
<path d="M6620 11273 c-13 -3 -27 -24 -46 -69 -5 -10 11 -18 52 -29 17 -4 36
37 32 70 -3 29 -12 36 -38 28z"/>
<path d="M6702 10742 c-7 -5 -11 -15 -8 -23 2 -8 7 -27 10 -42 8 -33 50 -54
72 -36 16 13 18 62 4 90 -11 20 -54 26 -78 11z"/>
<path d="M6970 10650 c0 -23 15 -26 35 -6 16 16 10 26 -17 26 -11 0 -18 -7
-18 -20z"/>
<path d="M7280 10550 c-13 -8 -12 -11 5 -24 25 -18 46 -3 25 19 -10 10 -20 11
-30 5z"/>
<path d="M6802 10412 c-13 -2 -26 -10 -29 -18 -3 -8 -12 -14 -20 -14 -8 0 -11
-4 -8 -10 3 -5 -1 -10 -9 -10 -37 0 -28 -46 13 -62 14 -6 62 -12 106 -13 90
-2 107 -10 200 -96 59 -54 95 -62 95 -21 0 28 -44 102 -60 102 -5 0 -35 26
-67 58 -32 31 -69 62 -83 69 -27 13 -102 21 -138 15z"/>
<path d="M19936 7664 c-23 -25 -117 -123 -209 -217 -93 -95 -195 -207 -228
-250 -53 -71 -59 -84 -59 -128 0 -48 47 -196 71 -225 6 -8 18 -40 26 -72 8
-31 18 -71 23 -89 13 -51 59 -123 86 -133 13 -5 32 -6 43 -2 28 10 160 140
205 200 48 66 71 82 117 82 45 0 92 -33 173 -121 33 -35 91 -92 129 -126 38
-35 115 -112 171 -172 55 -60 155 -157 221 -216 66 -59 130 -119 143 -133 52
-61 76 -82 93 -82 16 0 175 -154 266 -258 56 -64 119 -96 180 -93 25 1 162
134 224 217 21 29 63 79 93 112 48 51 56 65 56 99 0 25 -6 45 -17 55 -10 9
-47 45 -83 80 -36 35 -123 118 -194 183 -154 143 -152 141 -168 163 -7 10 -29
29 -48 42 -19 13 -80 69 -136 125 -55 55 -145 142 -200 193 -54 51 -122 114
-149 140 -28 26 -120 112 -205 192 -189 176 -283 266 -407 388 -88 86 -97 92
-136 92 -36 0 -46 -5 -81 -46z m494 -664 c0 -5 -7 -10 -15 -10 -8 0 -15 5 -15
10 0 6 7 10 15 10 8 0 15 -4 15 -10z m90 -90 c0 -5 -4 -10 -10 -10 -5 0 -10 5
-10 10 0 6 5 10 10 10 6 0 10 -4 10 -10z"/>
<path d="M5330 7310 c-156 -10 -244 -41 -378 -132 -50 -35 -76 -59 -122 -119
-19 -24 -51 -64 -72 -88 -24 -28 -41 -59 -44 -83 -4 -21 -11 -41 -15 -44 -5
-3 -9 -57 -9 -121 0 -97 4 -129 25 -192 14 -42 30 -92 36 -111 12 -36 142
-313 159 -340 32 -48 55 -155 45 -207 -8 -43 -60 -129 -83 -138 -9 -4 -42 -13
-72 -22 -84 -22 -128 -11 -200 50 -58 49 -130 136 -130 157 0 6 -4 18 -9 28
-15 29 -30 121 -37 232 -8 121 -22 167 -56 174 -63 13 -110 15 -126 7 -10 -5
-63 -17 -118 -26 -145 -24 -182 -36 -223 -71 l-36 -32 2 -88 c2 -58 12 -122
28 -184 31 -111 28 -104 96 -242 53 -106 87 -153 142 -195 16 -12 66 -57 110
-99 203 -190 317 -244 560 -264 102 -9 113 -8 182 15 40 14 82 25 92 25 10 0
36 11 58 25 22 13 47 25 56 25 8 0 26 12 40 26 13 14 49 44 80 65 62 42 148
139 181 203 11 22 31 56 44 76 44 67 56 239 25 367 -28 116 -35 131 -112 245
-34 49 -59 98 -59 115 0 9 -11 30 -24 48 -29 37 -76 172 -76 216 0 42 23 82
69 118 49 39 79 39 156 3 82 -39 120 -73 153 -140 16 -31 39 -76 52 -100 13
-25 26 -72 30 -109 6 -58 10 -69 40 -96 28 -25 39 -28 71 -24 21 3 58 14 81
25 24 11 54 23 68 27 23 6 130 51 189 78 13 7 28 23 33 37 15 38 2 163 -22
205 -11 19 -20 42 -20 51 0 8 -11 32 -25 54 -14 22 -25 42 -25 45 0 14 -76
123 -114 164 -133 144 -247 243 -315 272 -25 11 -69 31 -96 45 -28 13 -60 24
-71 24 -12 0 -38 7 -57 15 -20 8 -40 14 -44 13 -4 -1 -55 -5 -113 -8z m38
-331 c-2 -6 -8 -10 -13 -10 -5 0 -11 4 -13 10 -2 6 4 11 13 11 9 0 15 -5 13
-11z m-8 -159 c24 -24 25 -39 5 -46 -20 -8 -75 33 -68 51 8 21 40 18 63 -5z
m-170 -61 c39 -40 64 -86 50 -94 -13 -8 -40 13 -40 31 0 8 -16 24 -34 36 -40
26 -54 58 -26 58 10 0 32 -14 50 -31z m-72 -91 c18 -18 14 -38 -8 -38 -20 0
-44 32 -33 44 10 10 28 7 41 -6z m49 -164 c-3 -3 -12 -4 -19 -1 -8 3 -5 6 6 6
11 1 17 -2 13 -5z m-202 -43 c3 -5 1 -12 -4 -15 -12 -8 -41 3 -41 15 0 12 37
12 45 0z m323 -11 c10 -17 10 -21 -3 -26 -18 -7 -45 12 -45 32 0 21 34 17 48
-6z m-78 -516 c0 -17 -22 -14 -28 4 -2 7 3 12 12 12 9 0 16 -7 16 -16z m-82
-66 c17 -17 15 -38 -3 -38 -12 0 -35 28 -35 44 0 11 26 6 38 -6z m-128 -158
c0 -18 -22 -22 -37 -7 -21 21 -8 40 18 27 10 -6 19 -15 19 -20z m-97 -75 c8
-18 -11 -31 -25 -17 -11 11 -3 32 12 32 4 0 10 -7 13 -15z m-503 -71 c0 -8 -5
-12 -10 -9 -6 4 -8 11 -5 16 9 14 15 11 15 -7z"/>
<path d="M19020 6584 c-140 -11 -271 -28 -276 -35 -3 -5 -13 -9 -22 -9 -9 0
-44 -18 -77 -40 -33 -22 -64 -40 -68 -40 -4 0 -52 -29 -106 -64 -122 -79 -273
-226 -326 -316 -21 -36 -44 -72 -50 -80 -7 -8 -16 -31 -20 -50 -4 -19 -14 -48
-23 -65 -27 -51 -36 -124 -36 -290 0 -131 3 -166 17 -194 9 -19 17 -39 17 -45
0 -19 71 -160 92 -182 10 -12 22 -34 27 -50 9 -35 59 -63 113 -64 31 0 50 11
129 75 50 42 136 105 191 142 54 36 105 75 113 86 24 34 19 102 -10 145 -14
20 -25 44 -25 53 0 8 -3 19 -7 23 -14 13 -33 82 -33 118 0 52 28 122 73 181
63 81 159 112 262 82 68 -20 85 -29 137 -68 78 -59 96 -220 73 -642 -4 -66 -6
-136 -6 -155 0 -19 -4 -51 -9 -70 -5 -19 -10 -100 -11 -180 0 -80 -5 -181 -10
-225 -5 -44 -11 -138 -14 -208 -2 -71 -8 -134 -12 -140 -3 -6 -10 -103 -14
-215 -10 -249 -3 -272 79 -272 34 0 77 29 239 156 70 55 151 115 178 134 28
19 70 53 95 76 25 23 77 62 115 87 68 45 111 77 261 192 40 31 120 90 180 131
59 42 150 110 201 152 52 42 107 86 123 97 35 24 50 54 50 100 0 34 -14 58
-97 168 -18 23 -48 65 -66 93 -49 73 -131 134 -179 134 -15 0 -69 -37 -148
-103 -241 -199 -340 -253 -369 -199 -13 24 -7 248 7 265 7 8 11 43 11 78 -1
35 4 84 11 108 24 89 15 404 -14 532 -15 66 -80 204 -114 243 -10 12 -24 33
-32 48 -13 27 -111 124 -182 180 -46 36 -127 78 -150 78 -10 0 -37 9 -60 20
-41 20 -143 31 -228 24z m695 -1504 c3 -6 -1 -13 -10 -16 -19 -8 -30 0 -20 15
8 14 22 14 30 1z m-117 -44 c5 -21 -33 -55 -60 -56 -20 0 -40 31 -30 46 23 35
84 42 90 10z m350 -43 c-2 -10 -22 -28 -46 -41 -30 -17 -42 -30 -42 -46 0 -42
-21 -87 -39 -84 -37 8 -1 111 58 166 29 27 74 30 69 5z m-248 -62 c0 -22 -19
-41 -41 -41 -30 0 -31 19 -4 45 26 27 45 26 45 -4z m-242 -28 c-2 -10 -15 -24
-30 -32 -22 -13 -29 -13 -43 -1 -15 13 -15 15 7 32 31 23 71 24 66 1z m268
-67 c13 -33 -55 -101 -78 -78 -17 17 0 60 30 76 34 19 41 19 48 2z m-167 -39
c15 -19 -9 -50 -32 -41 -20 7 -23 40 -4 47 20 9 24 8 36 -6z m391 -42 c0 -8
-7 -15 -15 -15 -8 0 -15 7 -15 15 0 8 7 15 15 15 8 0 15 -7 15 -15z m-487 -79
c6 -15 -35 -66 -53 -66 -25 0 -23 34 4 57 31 27 42 29 49 9z m352 -46 c8 -14
-13 -50 -30 -50 -23 0 -28 20 -9 41 19 21 30 24 39 9z m-150 -30 c3 -5 -3 -10
-15 -10 -12 0 -18 5 -15 10 3 6 10 10 15 10 5 0 12 -4 15 -10z m-85 -134 c0
-27 -27 -43 -44 -26 -8 8 -4 17 13 31 30 24 31 24 31 -5z"/>
<path d="M6655 6301 c-31 -5 -50 -17 -83 -52 -23 -25 -42 -50 -42 -54 0 -8
-19 -33 -107 -142 -35 -43 -63 -82 -63 -88 0 -7 -12 -22 -26 -36 -15 -13 -47
-55 -72 -94 -25 -38 -59 -83 -74 -100 -15 -16 -28 -33 -28 -38 0 -4 -17 -26
-38 -50 -22 -23 -55 -67 -75 -97 -20 -30 -66 -91 -102 -135 -35 -44 -87 -111
-114 -150 -65 -94 -126 -171 -185 -236 -60 -66 -156 -192 -156 -206 0 -5 -14
-22 -31 -39 -17 -16 -55 -65 -85 -110 -86 -127 -78 -148 96 -262 47 -31 123
-85 170 -120 108 -83 134 -94 189 -81 48 11 56 17 94 74 25 37 94 127 155 203
15 19 41 53 57 76 17 24 49 67 72 97 24 30 55 71 70 92 16 21 44 57 64 80 20
23 49 62 65 87 16 25 49 71 74 104 56 73 80 105 104 142 11 16 37 46 58 67 21
21 38 44 38 51 0 7 11 22 25 34 14 12 25 28 25 35 0 8 10 22 21 33 12 10 33
37 47 59 14 22 46 65 72 95 25 30 52 71 60 90 7 19 37 61 67 92 29 31 53 61
53 65 0 5 18 34 40 63 55 73 53 97 -11 160 -28 27 -55 50 -61 50 -5 0 -37 26
-71 59 -34 32 -84 71 -112 86 -27 16 -65 46 -84 67 -19 21 -39 37 -45 36 -6 0
-29 -4 -51 -7z m-50 -531 c17 -19 15 -50 -4 -50 -14 0 -52 51 -45 61 9 15 30
10 49 -11z m150 -100 c11 -18 -5 -31 -26 -20 -11 6 -17 15 -14 21 8 12 32 12
40 -1z m-870 -887 c9 -25 -10 -37 -36 -22 -29 15 -39 28 -32 45 6 17 59 -1 68
-23z m123 -116 c4 -18 -14 -22 -37 -8 -7 5 -10 14 -6 20 10 17 39 9 43 -12z"/>
<path d="M7364 5673 c-33 -16 -64 -59 -64 -88 0 -9 -8 -29 -19 -43 -10 -15
-28 -47 -39 -72 -11 -25 -27 -56 -35 -70 -9 -14 -26 -47 -40 -75 -13 -27 -35
-72 -50 -100 -14 -27 -33 -68 -43 -90 -9 -21 -32 -62 -49 -90 -31 -48 -68
-114 -139 -250 -18 -33 -37 -69 -43 -80 -6 -11 -27 -51 -46 -90 -19 -38 -46
-92 -61 -120 -14 -27 -26 -61 -26 -73 0 -13 -8 -36 -19 -50 -10 -15 -30 -52
-44 -82 -14 -30 -41 -82 -61 -114 -20 -33 -36 -67 -36 -77 0 -19 -12 -42 -61
-119 -20 -30 -46 -81 -58 -113 -13 -31 -27 -60 -32 -63 -5 -3 -9 -24 -9 -47 0
-43 22 -87 43 -87 13 0 42 -14 219 -108 64 -34 144 -69 177 -78 85 -21 105
-10 154 86 22 41 51 95 65 120 15 25 34 67 44 93 9 26 32 69 50 95 19 26 40
63 48 82 7 19 24 49 37 66 13 17 23 36 23 43 0 6 4 19 9 29 5 9 50 101 100
203 50 102 100 194 111 204 38 34 26 45 -52 47 -40 1 -86 2 -102 2 -27 1 -57
28 -45 41 8 7 155 8 167 1 5 -3 22 4 37 15 l26 22 17 -24 c9 -13 32 -39 52
-57 l35 -32 -27 -23 c-27 -22 -27 -23 -17 -87 15 -99 25 -159 59 -350 17 -96
38 -231 46 -300 9 -69 20 -139 25 -156 5 -17 9 -47 9 -67 0 -20 4 -46 10 -59
5 -13 14 -66 20 -118 18 -175 45 -297 74 -335 35 -45 80 -79 142 -106 115 -50
138 -62 206 -106 115 -75 187 -62 236 43 20 41 130 241 163 294 15 26 68 129
316 620 208 411 295 582 340 665 84 157 104 208 98 246 -4 25 -18 50 -36 67
-28 26 -53 40 -204 115 -38 20 -101 51 -140 71 -47 24 -84 36 -111 36 -41 0
-43 -2 -83 -66 -22 -36 -41 -71 -41 -77 0 -7 -12 -32 -27 -57 -78 -134 -93
-164 -93 -183 0 -12 -14 -47 -30 -77 -47 -86 -110 -217 -110 -229 0 -6 -38
-86 -85 -178 -47 -92 -85 -173 -85 -180 0 -15 -39 -43 -60 -43 -40 1 -55 29
-62 113 -12 147 -27 270 -44 362 -9 50 -19 142 -23 205 -4 65 -15 134 -24 159
-10 24 -17 60 -17 81 0 20 -5 62 -10 91 -13 63 -29 175 -39 274 -9 80 -29 180
-41 210 -5 11 -11 29 -14 41 -4 11 -28 32 -54 46 -26 14 -90 48 -143 76 -54
28 -105 55 -115 61 -38 22 -186 81 -202 80 -10 0 -31 -7 -48 -16z m96 -393 c0
-5 -4 -10 -10 -10 -5 0 -10 5 -10 10 0 6 5 10 10 10 6 0 10 -4 10 -10z m190
-120 c0 -5 -4 -10 -10 -10 -5 0 -10 5 -10 10 0 6 5 10 10 10 6 0 10 -4 10 -10z
m-270 -10 c13 -9 13 -11 0 -20 -8 -5 -18 -10 -22 -10 -11 0 -20 19 -13 30 8
12 16 12 35 0z m109 -39 c15 -11 45 -22 66 -26 22 -4 57 -13 78 -21 21 -8 42
-12 47 -9 18 11 21 -17 4 -36 -15 -16 -26 -18 -88 -12 -44 3 -81 13 -98 24
-14 11 -30 19 -34 19 -17 0 -44 35 -44 57 0 29 31 31 69 4z m-94 -81 c3 -5 23
-14 43 -20 21 -5 46 -16 57 -24 19 -14 19 -16 4 -32 -16 -15 -20 -15 -69 1
-59 20 -107 56 -96 73 9 14 52 16 61 2z m411 -67 c-10 -10 -19 5 -10 18 6 11
8 11 12 0 2 -7 1 -15 -2 -18z m-176 -25 c32 -20 50 -37 48 -47 -4 -16 -11 -16
-69 -4 -22 4 -26 1 -25 -18 1 -16 -6 -25 -19 -27 -29 -6 -38 -17 -31 -40 8
-24 37 -37 46 -22 11 17 55 1 96 -34 24 -21 35 -37 30 -45 -11 -17 -51 -6
-103 29 -24 16 -43 24 -43 18 0 -21 -33 -48 -58 -48 -14 0 -40 11 -58 25 -18
14 -37 25 -43 25 -14 0 -38 38 -46 73 -6 23 -4 27 14 27 12 0 31 -9 43 -20 26
-24 48 -26 48 -5 0 8 -4 15 -10 15 -5 0 -14 10 -21 21 -16 31 2 39 86 39 54 0
66 3 57 12 -14 14 -16 58 -3 58 5 0 33 -14 61 -32z m-355 -138 c9 -28 -3 -42
-28 -34 -47 14 -77 65 -44 77 19 7 65 -20 72 -43z m539 24 c19 -18 21 -40 5
-50 -16 -9 -53 31 -46 50 8 20 21 20 41 0z m-526 -137 c2 -10 -3 -17 -12 -17
-18 0 -29 16 -21 31 9 14 29 6 33 -14z m97 -7 c-5 -8 -11 -8 -21 1 -12 10 -12
14 -2 20 16 10 33 -5 23 -21z m243 -36 c26 -18 29 -34 5 -34 -22 1 -53 23 -53
39 0 16 22 14 48 -5z m-249 -158 c18 -21 -11 -41 -38 -26 -12 6 -21 14 -21 19
0 23 41 29 59 7z m1381 -157 c0 -25 -33 -22 -38 4 -2 12 3 17 17 17 15 0 21
-6 21 -21z m-1874 -233 c17 -13 18 -15 2 -21 -26 -10 -52 -2 -56 18 -4 21 26
23 54 3z m1494 -221 c0 -8 -4 -15 -10 -15 -5 0 -10 7 -10 15 0 8 5 15 10 15 6
0 10 -7 10 -15z m-282 -12 c-4 -22 -22 -20 -26 1 -2 10 3 16 13 16 10 0 15 -7
13 -17z m382 7 c0 -5 -7 -10 -15 -10 -8 0 -15 5 -15 10 0 6 7 10 15 10 8 0 15
-4 15 -10z m-170 -60 c0 -27 -45 -27 -60 -1 -8 16 -6 22 7 30 23 12 53 -4 53
-29z m-114 -1 c10 -17 -13 -36 -27 -22 -12 12 -4 33 11 33 5 0 12 -5 16 -11z
m-31 -60 c28 -23 52 -46 54 -52 13 -40 63 -61 88 -36 19 19 68 7 71 -18 3 -18
-2 -22 -30 -25 -45 -4 -46 -37 0 -57 36 -16 42 -31 13 -31 -20 0 -107 45 -117
61 -8 14 -24 0 -24 -22 0 -22 -37 -26 -89 -8 -53 19 -39 69 20 69 38 0 16 69
-40 121 -19 18 -21 39 -3 39 4 0 30 -18 57 -41z m152 -14 c6 -19 -22 -46 -40
-39 -17 6 -23 35 -10 48 10 10 46 3 50 -9z m-279 -15 c25 -24 29 -50 8 -50
-15 0 -56 45 -56 61 0 16 26 10 48 -11z m-70 -83 c2 -11 -3 -17 -17 -17 -23 0
-35 15 -26 31 10 15 39 6 43 -14z m107 -97 c0 -8 -8 -16 -18 -18 -21 -4 -49
16 -41 30 9 15 59 5 59 -12z m98 -55 c8 -18 -11 -31 -25 -17 -11 11 -3 32 12
32 4 0 10 -7 13 -15z m-22 -57 c44 -35 50 -58 15 -58 -27 0 -119 67 -111 81
12 19 57 8 96 -23z m257 -6 c20 -25 -2 -36 -37 -18 -40 21 -43 49 -3 40 15 -4
33 -13 40 -22z m-140 7 c-2 -6 -8 -10 -13 -10 -5 0 -11 4 -13 10 -2 6 4 11 13
11 9 0 15 -5 13 -11z m-198 -215 c0 -8 -4 -12 -10 -9 -5 3 -10 10 -10 16 0 5
5 9 10 9 6 0 10 -7 10 -16z m75 -43 c7 -12 -12 -24 -25 -16 -11 7 -4 25 10 25
5 0 11 -4 15 -9z"/>
<path d="M17020 5420 c-8 -5 -34 -10 -57 -10 -29 0 -86 -18 -175 -56 -251
-105 -286 -128 -371 -244 -22 -30 -60 -77 -84 -104 -24 -26 -43 -55 -43 -63 0
-8 -16 -43 -35 -77 -26 -47 -35 -75 -35 -110 0 -26 -4 -55 -10 -65 -11 -22
-15 -211 -7 -351 9 -148 60 -328 146 -515 18 -38 39 -86 48 -105 8 -19 19 -43
24 -52 5 -10 9 -23 9 -29 0 -7 11 -27 25 -45 14 -18 25 -37 25 -43 0 -15 67
-118 107 -165 18 -22 33 -45 33 -52 0 -12 70 -92 132 -152 111 -107 162 -144
268 -197 116 -58 129 -63 230 -92 62 -17 249 -19 280 -3 10 5 34 10 54 10 47
0 200 53 259 90 27 16 51 30 53 30 13 0 156 115 202 162 61 63 83 91 110 139
21 38 72 182 72 205 0 8 6 25 14 37 31 46 23 396 -11 512 -8 28 -18 73 -23
100 -9 59 -74 247 -100 290 -9 17 -25 54 -34 82 -10 29 -42 90 -72 135 -29 46
-54 93 -54 105 0 12 -9 27 -21 33 -11 7 -28 28 -37 48 -39 84 -250 332 -282
332 -6 0 -32 20 -58 44 -27 25 -70 54 -96 66 -27 11 -61 29 -77 40 -38 28
-108 49 -204 61 -130 18 -189 20 -205 9z m-330 -368 c0 -13 -12 -22 -22 -16
-10 6 -1 24 13 24 5 0 9 -4 9 -8z m403 -247 c71 -29 169 -131 226 -234 8 -14
23 -34 33 -46 30 -31 75 -116 88 -163 6 -23 28 -70 50 -105 45 -73 135 -290
151 -368 6 -30 16 -63 22 -74 5 -11 11 -56 12 -100 2 -106 -22 -156 -99 -209
-33 -22 -50 -26 -111 -26 -54 0 -76 4 -85 16 -8 8 -28 21 -46 29 -30 12 -71
60 -151 174 -18 25 -33 51 -33 57 0 6 -11 21 -25 34 -13 12 -30 39 -36 59 -7
20 -20 48 -30 63 -11 14 -19 30 -19 36 0 9 -54 137 -106 250 -13 29 -33 80
-44 115 -12 34 -25 71 -29 82 -21 48 -31 107 -31 186 -1 71 3 91 25 134 35 69
86 104 151 105 28 0 67 -7 87 -15z m-408 -435 c3 -5 1 -10 -4 -10 -6 0 -11 5
-11 10 0 6 2 10 4 10 3 0 8 -4 11 -10z m1180 -1 c9 -14 -24 -49 -47 -49 -22 0
-23 18 -1 42 18 20 38 23 48 7z"/>
<path d="M15090 4730 c-14 -4 -50 -8 -81 -9 -114 -2 -300 -44 -404 -90 -22
-10 -51 -22 -65 -26 -14 -4 -47 -24 -75 -45 -27 -20 -67 -47 -87 -59 -20 -12
-39 -30 -42 -39 -4 -10 -26 -35 -51 -55 -25 -21 -45 -44 -45 -51 0 -7 -15 -30
-33 -52 -42 -50 -96 -159 -104 -210 -3 -21 -11 -45 -17 -53 -7 -9 -11 -81 -11
-209 l1 -195 44 -39 c41 -36 48 -39 90 -35 25 2 97 18 160 34 129 34 224 53
261 53 13 0 41 14 62 31 l37 30 0 120 c0 108 3 126 25 174 63 132 216 198 339
145 93 -39 186 -154 186 -229 0 -46 -42 -183 -86 -283 -19 -43 -34 -81 -34
-87 0 -5 -16 -32 -35 -61 -19 -29 -35 -58 -35 -65 0 -7 -9 -23 -19 -37 -11
-13 -23 -38 -27 -54 -4 -16 -15 -38 -24 -49 -10 -11 -27 -41 -39 -67 -11 -26
-26 -50 -31 -53 -12 -7 -70 -123 -70 -138 0 -6 -11 -25 -25 -43 -14 -18 -25
-41 -25 -51 0 -11 -13 -40 -30 -66 -16 -25 -41 -72 -55 -103 -14 -31 -37 -71
-50 -89 -14 -17 -25 -37 -25 -43 0 -6 -23 -51 -51 -99 -54 -92 -68 -118 -125
-236 -19 -40 -45 -90 -59 -112 -32 -52 -32 -94 0 -129 24 -26 30 -27 88 -23
34 2 125 21 202 42 77 20 163 40 190 45 47 7 71 13 215 54 30 9 72 16 92 16
21 0 57 6 80 14 24 8 72 20 108 26 36 7 96 21 133 32 37 11 93 24 125 29 118
19 220 41 347 74 55 15 118 31 140 36 49 12 61 23 86 72 13 25 17 43 11 50 -5
7 -12 39 -16 72 -4 33 -16 89 -26 124 -11 35 -20 76 -20 91 0 16 -4 31 -9 35
-5 3 -12 18 -16 33 -7 35 -44 78 -76 91 -18 6 -42 4 -80 -6 -30 -8 -70 -19
-89 -23 -19 -5 -60 -16 -90 -24 -99 -29 -194 -46 -252 -46 -49 0 -60 3 -73 24
-17 26 -10 55 23 105 10 14 26 47 36 72 9 26 32 61 51 78 23 21 35 41 35 59 0
15 10 38 21 52 67 83 169 266 169 303 0 14 5 29 10 32 6 3 10 18 10 32 0 14 9
40 20 57 19 32 38 111 47 201 6 66 -22 251 -47 310 -11 26 -20 55 -20 64 0 10
-11 35 -26 56 -14 20 -34 57 -45 80 -25 54 -175 189 -250 226 -76 38 -155 69
-173 69 -9 0 -42 9 -73 19 -67 22 -167 33 -203 21z m255 -1720 c0 -21 -5 -25
-36 -28 -39 -3 -65 17 -55 43 4 12 17 15 48 13 38 -3 43 -6 43 -28z m120 -20
c-5 -8 -11 -8 -17 -2 -6 6 -7 16 -3 22 5 8 11 8 17 2 6 -6 7 -16 3 -22z m-302
-26 c13 -13 -14 -44 -38 -44 -24 0 -51 31 -38 44 3 3 21 6 38 6 17 0 35 -3 38
-6z m241 -73 c9 -13 -3 -39 -21 -45 -22 -9 -53 3 -53 19 0 26 61 47 74 26z
m246 -60 c0 -23 -19 -31 -69 -31 -31 0 -40 -5 -56 -32 -29 -51 -65 -66 -65
-28 0 39 97 108 153 109 30 1 37 -3 37 -18z m-442 -13 c25 -25 2 -55 -33 -42
-18 7 -20 40 -2 47 19 8 22 8 35 -5z m181 -44 c12 -11 -40 -46 -70 -47 -30 -2
-34 1 -34 23 0 17 7 26 25 31 24 7 70 3 79 -7z m-309 -33 c0 -20 -33 -42 -58
-39 -33 4 -38 22 -10 36 29 13 68 15 68 3z m478 -139 c2 -7 -3 -12 -12 -12 -9
0 -16 7 -16 16 0 17 22 14 28 -4z m-328 -22 c0 -5 -4 -10 -10 -10 -5 0 -10 5
-10 10 0 6 5 10 10 10 6 0 10 -4 10 -10z m146 -32 c4 -6 -1 -17 -11 -25 -24
-17 -34 -17 -42 3 -10 26 38 47 53 22z m-276 -37 c0 -23 -14 -41 -31 -41 -21
0 -25 20 -7 38 14 14 38 16 38 3z"/>
<path d="M10195 4474 c-49 -8 -103 -19 -119 -24 -16 -6 -39 -10 -51 -10 -25 0
-98 -32 -155 -68 -19 -12 -42 -22 -51 -22 -8 0 -26 -11 -39 -25 -13 -14 -30
-25 -38 -25 -23 0 -96 -57 -164 -127 -64 -66 -158 -183 -158 -196 0 -5 -11
-23 -25 -41 -14 -18 -25 -39 -25 -47 0 -8 -4 -19 -9 -25 -22 -22 -61 -105 -61
-129 0 -14 -7 -37 -16 -50 -38 -57 -67 -245 -67 -425 0 -229 20 -337 87 -467
20 -38 36 -75 36 -82 0 -7 21 -40 48 -73 26 -33 61 -79 77 -102 66 -94 157
-171 267 -227 23 -12 57 -32 73 -44 29 -21 77 -42 210 -87 127 -43 169 -49
365 -54 l195 -5 60 33 c45 25 62 40 68 63 5 17 13 44 19 60 5 17 14 53 19 80
6 28 17 73 25 100 9 28 20 66 26 85 5 19 17 50 25 69 20 44 13 165 -10 189
-18 17 -10 19 -157 -33 -182 -65 -264 -77 -340 -50 -23 8 -50 15 -60 15 -30 0
-183 98 -237 152 -35 35 -58 68 -69 100 -8 25 -20 48 -25 50 -6 2 -19 46 -30
98 -31 158 -7 323 69 455 6 11 19 37 28 58 16 37 136 167 154 167 4 0 15 6 22
14 8 8 37 25 65 40 46 23 66 26 170 28 94 2 130 -1 178 -16 136 -43 218 -101
324 -230 34 -41 68 -77 75 -79 8 -3 29 5 48 18 31 21 36 31 47 97 19 106 60
286 77 338 23 71 18 128 -15 186 -24 41 -37 53 -73 64 -23 8 -82 41 -129 72
-56 38 -95 58 -115 58 -17 0 -34 4 -40 9 -14 13 -168 53 -275 70 -85 14 -191
12 -304 -5z m194 -283 c16 -10 6 -31 -14 -31 -17 0 -28 17 -20 30 8 12 16 12
34 1z m-459 -245 c0 -3 -4 -8 -10 -11 -5 -3 -10 -1 -10 4 0 6 5 11 10 11 6 0
10 -2 10 -4z m-305 -721 c0 -22 -31 -33 -47 -17 -17 17 -1 44 24 40 15 -2 23
-10 23 -23z m65 -85 c0 -5 -7 -10 -15 -10 -8 0 -15 5 -15 10 0 6 7 10 15 10 8
0 15 -4 15 -10z m-62 -228 c2 -7 -3 -12 -12 -12 -9 0 -16 7 -16 16 0 17 22 14
28 -4z m152 -48 c0 -19 -39 -18 -47 2 -3 9 0 20 8 24 15 10 39 -6 39 -26z
m-172 -183 c3 -8 -1 -12 -9 -9 -7 2 -15 10 -17 17 -3 8 1 12 9 9 7 -2 15 -10
17 -17z m186 -7 c20 -19 20 -33 2 -40 -22 -8 -56 14 -56 36 0 25 32 27 54 4z
m256 -49 c0 -8 -4 -15 -10 -15 -5 0 -10 7 -10 15 0 8 5 15 10 15 6 0 10 -7 10
-15z m-150 -25 c0 -5 -4 -10 -9 -10 -6 0 -13 5 -16 10 -3 6 1 10 9 10 9 0 16
-4 16 -10z"/>
<path d="M11533 4230 c-43 -26 -57 -55 -58 -120 -6 -355 -9 -439 -17 -525 -5
-55 -13 -172 -18 -260 -5 -88 -14 -187 -20 -220 -11 -61 -13 -84 -25 -410 -3
-99 -10 -193 -15 -210 -5 -16 -11 -118 -15 -226 -6 -196 -6 -196 17 -224 27
-31 67 -42 218 -55 100 -10 344 -16 420 -12 44 3 295 -12 503 -29 148 -12 160
-12 192 5 47 25 56 59 61 211 3 72 10 146 15 166 9 30 8 42 -9 76 -35 68 -33
67 -271 75 -119 4 -267 11 -330 15 -143 10 -151 17 -155 142 -1 45 1 84 5 87
4 2 10 22 14 43 6 34 11 41 49 55 48 19 142 21 183 5 15 -6 82 -15 148 -20 66
-5 147 -12 181 -15 50 -5 68 -2 101 14 63 32 72 69 74 301 2 216 23 201 -293
213 -331 12 -345 13 -381 49 l-30 30 7 107 c4 58 12 114 17 124 20 38 64 50
167 44 448 -23 526 -24 552 -6 29 20 35 53 44 245 4 66 12 138 18 159 12 38
11 40 -20 66 -44 37 -108 48 -302 55 -91 3 -201 10 -245 15 -44 6 -132 12
-195 15 -63 2 -200 11 -305 19 -245 19 -244 19 -282 -4z m275 -287 c2 -8 -5
-13 -17 -13 -21 0 -35 13 -24 24 10 10 36 3 41 -11z m99 -28 c3 -9 3 -18 0
-21 -7 -8 -47 15 -47 26 0 16 40 11 47 -5z m201 -67 c-3 -7 -15 -13 -28 -13
-13 0 -25 6 -27 13 -3 8 6 12 27 12 21 0 30 -4 28 -12z m102 -68 c0 -5 -7 -10
-15 -10 -8 0 -15 5 -15 10 0 6 7 10 15 10 8 0 15 -4 15 -10z m-191 -11 c35
-12 45 -45 10 -34 -22 7 -65 45 -50 45 4 0 22 -5 40 -11z m-110 -53 c9 -10 9
-16 1 -21 -17 -11 -60 4 -60 20 0 19 44 20 59 1z m-26 -332 c11 -11 -5 -34
-24 -34 -12 0 -19 7 -19 20 0 19 28 28 43 14z m157 -55 c0 -5 -9 -9 -20 -9
-19 0 -26 11 -14 23 8 8 34 -3 34 -14z m-93 -45 c8 -21 -19 -46 -40 -38 -20 7
-22 25 -5 42 17 17 37 15 45 -4z m129 -66 c10 -16 -24 -38 -58 -38 -32 0 -49
27 -27 41 20 13 77 11 85 -3z m-206 -13 c13 -16 6 -35 -15 -35 -15 0 -24 19
-17 38 6 16 17 15 32 -3z m-95 -45 c0 -7 -6 -15 -12 -17 -8 -3 -13 4 -13 17 0
13 5 20 13 18 6 -3 12 -11 12 -18z m155 -38 c0 -10 -25 -31 -57 -49 -32 -18
-83 -17 -83 2 0 19 31 35 69 35 16 0 33 5 36 10 8 12 35 13 35 2z m170 -72 c0
-5 -4 -10 -10 -10 -5 0 -10 5 -10 10 0 6 5 10 10 10 6 0 10 -4 10 -10z m-170
-16 c0 -9 -5 -14 -12 -12 -18 6 -21 28 -4 28 9 0 16 -7 16 -16z m70 -124 c0
-5 -9 -10 -20 -10 -11 0 -20 5 -20 10 0 6 9 10 20 10 11 0 20 -4 20 -10z
m-120 -55 c0 -18 -31 -35 -64 -35 -32 0 -40 14 -20 34 20 21 84 22 84 1z m110
-65 c0 -5 -9 -10 -20 -10 -12 0 -31 -11 -44 -25 -24 -25 -66 -34 -66 -14 0 17
32 38 57 39 12 0 25 5 28 10 3 6 15 10 26 10 10 0 19 -4 19 -10z m-152 -128
c15 -10 7 -38 -14 -46 -8 -3 -44 -9 -80 -12 -71 -7 -92 3 -73 37 6 13 24 19
62 22 28 2 61 4 72 5 11 1 26 -2 33 -6z m165 -134 c10 -5 16 -15 14 -21 -6
-19 -72 -20 -106 -2 -31 16 -37 26 -24 39 8 8 91 -3 116 -16z m-145 -20 c-6
-16 -32 -22 -64 -14 -40 10 -27 26 22 26 32 0 44 -4 42 -12z m-133 -24 c37
-37 -13 -59 -51 -23 -23 21 -23 24 -7 30 28 12 40 10 58 -7z m87 -89 c0 -5 -5
-11 -11 -13 -6 -2 -11 4 -11 13 0 9 5 15 11 13 6 -2 11 -8 11 -13z m-162 -30
c0 -8 -4 -15 -10 -15 -5 0 -10 7 -10 15 0 8 5 15 10 15 6 0 10 -7 10 -15z
m304 -31 c9 -23 -33 -54 -69 -51 -39 3 -47 38 -13 55 34 16 75 14 82 -4z m162
-35 c8 -14 -14 -29 -42 -29 -21 0 -39 22 -27 34 11 10 61 7 69 -5z m-326 -14
c0 -8 -4 -15 -10 -15 -5 0 -10 7 -10 15 0 8 5 15 10 15 6 0 10 -7 10 -15z
m568 -13 c4 -14 -34 -16 -42 -3 -6 10 13 21 28 17 6 -1 12 -8 14 -14z"/>
<path d="M21550 461 c0 -5 7 -12 16 -15 14 -5 15 -4 4 9 -14 17 -20 19 -20 6z"/>
</g>
</svg>
